<?xml version="1.0" encoding="UTF-8" standalone="no"?>
<svg xmlns:ffdec="https://www.free-decompiler.com/flash" xmlns:xlink="http://www.w3.org/1999/xlink" ffdec:objectType="shape" height="250.0px" width="250.0px" xmlns="http://www.w3.org/2000/svg">
  <g transform="matrix(1.0, 0.0, 0.0, 1.0, 20.05, 62.75)">
    <path d="M104.95 62.25 L4.9 -14.5 28.2 -37.8 104.95 62.25 56.7 -54.2 88.45 -62.7 104.95 62.25 121.4 -62.75 153.2 -54.2 104.95 62.25 181.75 -37.75 205.0 -14.45 104.95 62.25 221.4 14.05 229.95 45.8 104.95 62.25 229.9 78.7 221.45 110.5 104.95 62.25 204.95 139.05 181.65 162.2 104.95 62.25 153.2 178.7 121.4 187.25 104.95 62.25 88.45 187.2 56.65 178.75 104.95 62.25 28.15 162.25 4.85 138.95 104.95 62.25 -11.55 110.5 -20.05 78.7 104.95 62.25 -20.05 45.75 -11.55 14.0 104.95 62.25" fill="url(#gradient0)" fill-rule="evenodd" stroke="none"/>
  </g>
  <defs>
    <radialGradient cx="0" cy="0" gradientTransform="matrix(0.1526, 0.0201, 0.0201, -0.1526, 104.95, 62.25)" gradientUnits="userSpaceOnUse" id="gradient0" r="819.2" spreadMethod="pad">
      <stop offset="0.0" stop-color="#ffffff" stop-opacity="0.9019608"/>
      <stop offset="0.9215686274509803" stop-color="#ffffff" stop-opacity="0.0"/>
    </radialGradient>
  </defs>
</svg>
