<?xml version="1.0" encoding="UTF-8" standalone="no"?>
<svg xmlns:ffdec="https://www.free-decompiler.com/flash" xmlns:xlink="http://www.w3.org/1999/xlink" ffdec:objectType="frame" height="546.85px" width="926.0px" xmlns="http://www.w3.org/2000/svg">
  <g transform="matrix(1.0, 0.0, 0.0, 1.0, 0.0, 110.85)">
    <use ffdec:characterId="159" height="436.0" transform="matrix(1.0, 0.0, 0.0, 1.0, 0.0, 0.0)" width="926.0" xlink:href="#shape0"/>
    <use ffdec:characterId="161" height="100.6" transform="matrix(1.2395, 0.0, 0.0, 1.2395, 56.1339, -110.8439)" width="104.1" xlink:href="#sprite0"/>
    <use ffdec:characterId="161" height="100.6" transform="matrix(1.2395, 0.0, 0.0, 1.2395, 270.0339, -109.0439)" width="104.1" xlink:href="#sprite0"/>
    <use ffdec:characterId="161" height="100.6" transform="matrix(1.2395, 0.0, 0.0, 1.2395, 504.0339, -105.5439)" width="104.1" xlink:href="#sprite0"/>
    <use ffdec:characterId="161" height="100.6" transform="matrix(1.2395, 0.0, 0.0, 1.2395, 743.7339, -104.8939)" width="104.1" xlink:href="#sprite0"/>
  </g>
  <defs>
    <g id="shape0" transform="matrix(1.0, 0.0, 0.0, 1.0, 0.0, 0.0)">
      <path d="M903.0 18.0 L23.0 18.0 Q20.95 18.0 19.45 19.45 18.0 20.95 18.0 23.0 L18.0 413.0 Q18.0 415.05 19.45 416.55 20.95 418.0 23.0 418.0 L903.0 418.0 Q905.05 418.0 906.55 416.55 908.0 415.05 908.0 413.0 L908.0 23.0 Q908.0 20.95 906.55 19.45 905.05 18.0 903.0 18.0 M903.0 0.0 Q912.55 0.0 919.25 6.75 926.0 13.5 926.0 23.0 L926.0 413.0 Q926.0 422.5 919.25 429.25 912.5 436.0 903.0 436.0 L23.0 436.0 Q13.5 436.0 6.75 429.25 0.0 422.5 0.0 413.0 L0.0 23.0 Q0.0 13.5 6.75 6.75 13.5 0.0 23.0 0.0 L903.0 0.0" fill="#240a30" fill-rule="evenodd" stroke="none"/>
    </g>
    <g id="sprite0" transform="matrix(1.0, 0.0, 0.0, 1.0, 52.05, 100.6)">
      <use ffdec:characterId="160" height="100.6" transform="matrix(1.0, 0.0, 0.0, 1.0, -52.05, -100.6)" width="104.1" xlink:href="#shape1"/>
    </g>
    <g id="shape1" transform="matrix(1.0, 0.0, 0.0, 1.0, 52.05, 100.6)">
      <path d="M52.05 -50.3 Q52.05 -29.45 36.8 -14.75 21.55 0.0 0.0 0.0 -21.55 0.0 -36.8 -14.75 -52.05 -29.45 -52.05 -50.3 -52.05 -71.15 -36.8 -85.9 -21.55 -100.6 0.0 -100.6 21.55 -100.6 36.8 -85.9 52.05 -71.15 52.05 -50.3" fill="url(#gradient0)" fill-rule="evenodd" stroke="none"/>
    </g>
    <radialGradient cx="0" cy="0" gradientTransform="matrix(0.0637, 0.0, 0.0, 0.0637, 0.0, -50.3)" gradientUnits="userSpaceOnUse" id="gradient0" r="819.2" spreadMethod="pad">
      <stop offset="0.0" stop-color="#ffffff" stop-opacity="0.3764706"/>
      <stop offset="1.0" stop-color="#ffffff" stop-opacity="0.0"/>
    </radialGradient>
  </defs>
</svg>
