<?xml version="1.0" encoding="UTF-8" standalone="no"?>
<svg xmlns:ffdec="https://www.free-decompiler.com/flash" xmlns:xlink="http://www.w3.org/1999/xlink" ffdec:objectType="frame" height="321.9px" width="252.1px" xmlns="http://www.w3.org/2000/svg">
  <g transform="matrix(1.0, 0.0, 0.0, 1.0, 15.35, 66.65)">
    <clipPath id="clipPath0" transform="matrix(1.0, 0.0, 0.0, 1.0, 0.0, 0.0)">
      <path d="M210.0 230.1 L0.0 230.1 0.0 -35.8 210.0 -35.8 210.0 230.1" fill="#ff0000" fill-rule="evenodd" stroke="none"/>
    </clipPath>
    <g clip-path="url(#clipPath0)">
      <use ffdec:characterId="169" height="42.9" transform="matrix(1.0, 0.0, 0.0, 1.0, 18.35, 212.35)" width="43.8" xlink:href="#sprite0"/>
      <use ffdec:characterId="171" height="32.4" transform="matrix(1.0, 0.0, 0.0, 1.0, 47.75, 186.5)" width="31.75" xlink:href="#sprite1"/>
      <use ffdec:characterId="173" height="34.8" transform="matrix(1.0, 0.0, 0.0, 1.0, 98.85, 169.6)" width="36.35" xlink:href="#sprite2"/>
      <use ffdec:characterId="174" height="36.15" transform="matrix(1.0, 0.0, 0.0, 1.0, 142.55, 163.1)" width="37.95" xlink:href="#sprite3"/>
      <use ffdec:characterId="176" height="47.5" transform="matrix(1.0, 0.0, 0.0, 1.0, 178.45, 180.75)" width="47.0" xlink:href="#sprite4"/>
      <use ffdec:characterId="178" height="47.55" transform="matrix(1.0, 0.0, 0.0, 1.0, 136.1, 203.15)" width="49.05" xlink:href="#sprite5"/>
      <use ffdec:characterId="180" height="5.1" transform="matrix(1.0, 0.0, 0.0, 1.0, 144.45, 162.6)" width="5.25" xlink:href="#sprite6"/>
      <use ffdec:characterId="181" height="13.25" transform="matrix(1.0, 0.0, 0.0, 1.0, 63.2, 105.7)" width="13.9" xlink:href="#sprite7"/>
      <use ffdec:characterId="183" height="20.75" transform="matrix(1.0, 0.0, 0.0, 1.0, 19.7, 73.0)" width="19.75" xlink:href="#sprite8"/>
      <use ffdec:characterId="185" height="18.65" transform="matrix(1.0, 0.0, 0.0, 1.0, 71.55, 72.9)" width="19.3" xlink:href="#sprite9"/>
      <use ffdec:characterId="186" height="16.6" transform="matrix(1.0, 0.0, 0.0, 1.0, 153.6, 114.95)" width="17.2" xlink:href="#sprite10"/>
      <use ffdec:characterId="188" height="35.1" transform="matrix(1.0, 0.0, 0.0, 1.0, 163.5, 90.45)" width="36.3" xlink:href="#sprite11"/>
      <use ffdec:characterId="190" height="17.5" transform="matrix(1.0, 0.0, 0.0, 1.0, 126.6, 90.75)" width="18.4" xlink:href="#sprite12"/>
      <use ffdec:characterId="192" height="30.0" transform="matrix(1.0, 0.0, 0.0, 1.0, 100.8, 52.8)" width="30.9" xlink:href="#sprite13"/>
      <use ffdec:characterId="194" height="31.4" transform="matrix(1.0, 0.0, 0.0, 1.0, 77.9, 32.5)" width="31.65" xlink:href="#sprite14"/>
      <use ffdec:characterId="196" height="24.35" transform="matrix(1.0, 0.0, 0.0, 1.0, 86.6, -7.1)" width="23.2" xlink:href="#sprite15"/>
      <use ffdec:characterId="197" height="20.05" transform="matrix(1.0, 0.0, 0.0, 1.0, 23.8, 143.35)" width="20.7" xlink:href="#sprite16"/>
      <use ffdec:characterId="199" height="18.0" transform="matrix(1.0, 0.0, 0.0, 1.0, 143.35, -4.75)" width="17.7" xlink:href="#sprite17"/>
      <use ffdec:characterId="200" height="22.0" transform="matrix(1.0, 0.0, 0.0, 1.0, 188.8, -7.4)" width="21.0" xlink:href="#sprite18"/>
      <use ffdec:characterId="201" height="25.25" transform="matrix(1.0, 0.0, 0.0, 1.0, 33.7, 171.4)" width="24.25" xlink:href="#sprite19"/>
      <use ffdec:characterId="202" height="8.85" transform="matrix(1.0, 0.0, 0.0, 1.0, 98.5, 165.45)" width="8.65" xlink:href="#sprite20"/>
      <use ffdec:characterId="204" height="40.75" transform="matrix(1.0, 0.0, 0.0, 1.0, 102.25, 124.3)" width="40.6" xlink:href="#sprite21"/>
      <use ffdec:characterId="205" height="36.6" transform="matrix(1.0, 0.0, 0.0, 1.0, 178.2, 120.7)" width="38.25" xlink:href="#sprite22"/>
      <use ffdec:characterId="206" height="6.8" transform="matrix(1.0, 0.0, 0.0, 1.0, 195.65, 57.1)" width="6.55" xlink:href="#sprite23"/>
      <use ffdec:characterId="208" height="32.8" transform="matrix(1.0, 0.0, 0.0, 1.0, 113.0, 22.6)" width="31.55" xlink:href="#sprite24"/>
      <use ffdec:characterId="209" height="10.75" transform="matrix(1.0, 0.0, 0.0, 1.0, 32.65, 29.45)" width="11.2" xlink:href="#sprite25"/>
      <use ffdec:characterId="211" height="31.5" transform="matrix(1.0, 0.0, 0.0, 1.0, -0.65, 8.45)" width="30.55" xlink:href="#sprite26"/>
      <use ffdec:characterId="212" height="31.5" transform="matrix(1.0, 0.0, 0.0, 1.0, -15.35, 168.2)" width="30.55" xlink:href="#sprite27"/>
      <use ffdec:characterId="214" height="7.35" transform="matrix(1.0, 0.0, 0.0, 1.0, -8.6, 67.0)" width="7.5" xlink:href="#sprite28"/>
      <use ffdec:characterId="215" height="12.6" transform="matrix(1.0, 0.0, 0.0, 1.0, 0.65, 111.1)" width="13.2" xlink:href="#sprite29"/>
      <use ffdec:characterId="217" height="10.45" transform="matrix(1.0, 0.0, 0.0, 1.0, 27.15, 124.8)" width="10.95" xlink:href="#sprite30"/>
      <use ffdec:characterId="218" height="5.5" transform="matrix(1.0, 0.0, 0.0, 1.0, 76.75, 129.45)" width="5.45" xlink:href="#sprite31"/>
      <use ffdec:characterId="219" height="37.4" transform="matrix(1.0, 0.0, 0.0, 1.0, 30.6, 50.7)" width="36.7" xlink:href="#sprite32"/>
      <use ffdec:characterId="220" height="34.9" transform="matrix(1.0, 0.0, 0.0, 1.0, 39.6, 110.9)" width="34.45" xlink:href="#sprite33"/>
      <use ffdec:characterId="221" height="18.4" transform="matrix(1.0, 0.0, 0.0, 1.0, 77.1, 155.2)" width="18.9" xlink:href="#sprite34"/>
      <use ffdec:characterId="223" height="21.85" transform="matrix(1.0, 0.0, 0.0, 1.0, 159.4, 142.25)" width="22.15" xlink:href="#sprite35"/>
      <use ffdec:characterId="224" height="12.3" transform="matrix(1.0, 0.0, 0.0, 1.0, 191.2, 173.25)" width="12.35" xlink:href="#sprite36"/>
      <use ffdec:characterId="225" height="47.9" transform="matrix(1.0, 0.0, 0.0, 1.0, 37.0, -2.45)" width="49.05" xlink:href="#sprite37"/>
      <use ffdec:characterId="227" height="30.4" transform="matrix(1.0, 0.0, 0.0, 1.0, 91.1, 89.85)" width="30.05" xlink:href="#sprite38"/>
      <use ffdec:characterId="228" height="14.0" transform="matrix(1.0, 0.0, 0.0, 1.0, 113.6, 10.2)" width="14.0" xlink:href="#sprite39"/>
      <use ffdec:characterId="229" height="27.7" transform="matrix(1.0, 0.0, 0.0, 1.0, -8.1, 214.5)" width="27.7" xlink:href="#sprite40"/>
      <use ffdec:characterId="230" height="10.15" transform="matrix(1.0, 0.0, 0.0, 1.0, 66.8, 170.8)" width="9.65" xlink:href="#sprite41"/>
      <use ffdec:characterId="231" height="6.35" transform="matrix(1.0, 0.0, 0.0, 1.0, 83.95, 113.35)" width="6.25" xlink:href="#sprite42"/>
      <use ffdec:characterId="232" height="44.6" transform="matrix(1.0, 0.0, 0.0, 1.0, 143.25, 34.85)" width="45.3" xlink:href="#sprite43"/>
      <use ffdec:characterId="233" height="48.2" transform="matrix(1.0, 0.0, 0.0, 1.0, 189.75, 5.35)" width="47.0" xlink:href="#sprite44"/>
      <use ffdec:characterId="234" height="24.45" transform="matrix(1.0, 0.0, 0.0, 1.0, 90.8, 203.6)" width="24.5" xlink:href="#sprite45"/>
      <use ffdec:characterId="194" height="31.4" transform="matrix(1.0, 0.0, 0.0, 1.0, 6.45, -29.5)" width="31.65" xlink:href="#sprite14"/>
      <use ffdec:characterId="220" height="34.9" transform="matrix(1.0, 0.0, 0.0, 1.0, 109.05, -40.1)" width="34.45" xlink:href="#sprite33"/>
      <use ffdec:characterId="186" height="16.6" transform="matrix(1.0, 0.0, 0.0, 1.0, 60.65, -22.05)" width="17.2" xlink:href="#sprite10"/>
      <use ffdec:characterId="215" height="12.6" transform="matrix(1.0, 0.0, 0.0, 1.0, 161.4, -17.45)" width="13.2" xlink:href="#sprite29"/>
      <use ffdec:characterId="186" height="16.6" transform="matrix(1.0, 0.0, 0.0, 1.0, 181.6, -31.55)" width="17.2" xlink:href="#sprite10"/>
      <use ffdec:characterId="232" height="44.6" transform="matrix(1.0, 0.0, 0.0, 1.0, 28.8, -66.65)" width="45.3" xlink:href="#sprite43"/>
      <use ffdec:characterId="197" height="20.05" transform="matrix(1.0, 0.0, 0.0, 1.0, 81.05, -48.4)" width="20.7" xlink:href="#sprite16"/>
      <use ffdec:characterId="205" height="36.6" transform="matrix(1.0, 0.0, 0.0, 1.0, 144.75, -61.85)" width="38.25" xlink:href="#sprite22"/>
    </g>
  </g>
  <defs>
    <g id="sprite0" transform="matrix(1.0, 0.0, 0.0, 1.0, 0.0, 0.0)">
      <use ffdec:characterId="168" height="42.9" transform="matrix(1.0, 0.0, 0.0, 1.0, 0.0, 0.0)" width="43.8" xlink:href="#shape1"/>
    </g>
    <g id="shape1" transform="matrix(1.0, 0.0, 0.0, 1.0, 0.0, 0.0)">
      <path d="M43.8 13.9 L33.85 25.6 37.8 40.45 23.6 34.55 10.7 42.9 11.9 27.6 0.0 17.9 14.95 14.3 20.45 0.0 28.5 13.1 43.8 13.9" fill="#ffffff" fill-rule="evenodd" stroke="none"/>
    </g>
    <g id="sprite1" transform="matrix(1.0, 0.0, 0.0, 1.0, 0.0, 0.0)">
      <use ffdec:characterId="170" height="37.4" transform="matrix(0.8651, 0.0, 0.0, 0.8663, 0.0, 0.0)" width="36.7" xlink:href="#shape2"/>
    </g>
    <g id="shape2" transform="matrix(1.0, 0.0, 0.0, 1.0, 0.0, 0.0)">
      <path d="M36.7 9.3 L29.5 20.25 34.45 32.4 21.8 28.95 11.8 37.4 11.15 24.3 0.0 17.4 12.3 12.75 15.4 0.0 23.6 10.25 36.7 9.3" fill="#ffffff" fill-rule="evenodd" stroke="none"/>
    </g>
    <g id="sprite2" transform="matrix(1.0, 0.0, 0.0, 1.0, 0.0, 0.0)">
      <use ffdec:characterId="172" height="34.8" transform="matrix(1.0, 0.0, 0.0, 1.0, 0.0, 0.0)" width="36.35" xlink:href="#shape3"/>
    </g>
    <g id="shape3" transform="matrix(1.0, 0.0, 0.0, 1.0, 0.0, 0.0)">
      <path d="M36.35 12.8 L27.45 21.85 29.85 34.3 18.5 28.65 7.4 34.8 9.25 22.25 0.0 13.55 12.5 11.5 17.9 0.0 23.75 11.25 36.35 12.8" fill="#ffffff" fill-rule="evenodd" stroke="none"/>
    </g>
    <g id="sprite3" transform="matrix(1.0, 0.0, 0.0, 1.0, 0.0, 0.0)">
      <use ffdec:characterId="172" height="34.8" transform="matrix(1.044, 0.0, 0.0, 1.0388, 0.0, 0.0)" width="36.35" xlink:href="#shape3"/>
    </g>
    <g id="sprite4" transform="matrix(1.0, 0.0, 0.0, 1.0, 0.0, 0.0)">
      <use ffdec:characterId="175" height="34.9" transform="matrix(1.3643, 0.0, 0.0, 1.361, 0.0, 0.0)" width="34.45" xlink:href="#shape4"/>
    </g>
    <g id="shape4" transform="matrix(1.0, 0.0, 0.0, 1.0, 0.0, 0.0)">
      <path d="M0.0 9.15 L12.25 9.75 19.7 0.0 22.9 11.85 34.45 15.9 24.2 22.6 23.95 34.9 14.35 27.2 2.6 30.7 6.95 19.25 0.0 9.15" fill="#ffffff" fill-rule="evenodd" stroke="none"/>
    </g>
    <g id="sprite5" transform="matrix(1.0, 0.0, 0.0, 1.0, 0.0, 0.0)">
      <use ffdec:characterId="177" height="47.55" transform="matrix(1.0, 0.0, 0.0, 1.0, 0.0, 0.0)" width="49.05" xlink:href="#shape5"/>
    </g>
    <g id="shape5" transform="matrix(1.0, 0.0, 0.0, 1.0, 0.0, 0.0)">
      <path d="M7.65 1.8 L23.3 8.85 38.0 0.0 36.1 17.05 49.05 28.25 32.25 31.75 25.6 47.55 17.1 32.65 0.0 31.2 11.55 18.5 7.65 1.8" fill="#ffffff" fill-rule="evenodd" stroke="none"/>
    </g>
    <g id="sprite6" transform="matrix(1.0, 0.0, 0.0, 1.0, 0.0, 0.0)">
      <use ffdec:characterId="179" height="27.7" transform="matrix(0.1895, 0.0, 0.0, 0.1841, 0.0, 0.0)" width="27.7" xlink:href="#shape6"/>
    </g>
    <g id="shape6" transform="matrix(1.0, 0.0, 0.0, 1.0, 0.0, 0.0)">
      <path d="M0.0 7.85 L9.8 8.0 15.45 0.0 18.35 9.35 27.7 12.25 19.7 17.9 19.85 27.7 12.0 21.85 2.7 25.0 5.85 15.7 0.0 7.85" fill="#ffffff" fill-rule="evenodd" stroke="none"/>
    </g>
    <g id="sprite7" transform="matrix(1.0, 0.0, 0.0, 1.0, 0.0, 0.0)">
      <use ffdec:characterId="172" height="34.8" transform="matrix(0.3824, 0.0, 0.0, 0.3808, 0.0, 0.0)" width="36.35" xlink:href="#shape3"/>
    </g>
    <g id="sprite8" transform="matrix(1.0, 0.0, 0.0, 1.0, 0.0, 0.0)">
      <use ffdec:characterId="182" height="25.25" transform="matrix(0.8144, 0.0, 0.0, 0.8218, 0.0, 0.0)" width="24.25" xlink:href="#shape7"/>
    </g>
    <g id="shape7" transform="matrix(1.0, 0.0, 0.0, 1.0, 0.0, 0.0)">
      <path d="M9.55 0.0 L15.5 6.5 24.25 5.25 19.95 12.95 23.8 20.85 15.15 19.15 8.85 25.25 7.8 16.5 0.0 12.4 8.05 8.7 9.55 0.0" fill="#ffffff" fill-rule="evenodd" stroke="none"/>
    </g>
    <g id="sprite9" transform="matrix(1.0, 0.0, 0.0, 1.0, 0.0, 0.0)">
      <use ffdec:characterId="184" height="20.05" transform="matrix(0.9324, 0.0, 0.0, 0.9302, 0.0, 0.0)" width="20.7" xlink:href="#shape8"/>
    </g>
    <g id="shape8" transform="matrix(1.0, 0.0, 0.0, 1.0, 0.0, 0.0)">
      <path d="M20.7 6.95 L15.8 12.25 17.45 19.3 10.85 16.35 4.65 20.05 5.45 12.85 0.0 8.1 7.1 6.65 9.9 0.0 13.5 6.3 20.7 6.95" fill="#ffffff" fill-rule="evenodd" stroke="none"/>
    </g>
    <g id="sprite10" transform="matrix(1.0, 0.0, 0.0, 1.0, 0.0, 0.0)">
      <use ffdec:characterId="177" height="47.55" transform="matrix(0.3507, 0.0, 0.0, 0.3491, 0.0, 0.0)" width="49.05" xlink:href="#shape5"/>
    </g>
    <g id="sprite11" transform="matrix(1.0, 0.0, 0.0, 1.0, 0.0, 0.0)">
      <use ffdec:characterId="187" height="35.1" transform="matrix(1.0, 0.0, 0.0, 1.0, 0.0, 0.0)" width="36.3" xlink:href="#shape9"/>
    </g>
    <g id="shape9" transform="matrix(1.0, 0.0, 0.0, 1.0, 0.0, 0.0)">
      <path d="M30.55 1.2 L27.7 13.6 36.3 22.95 23.65 24.05 17.45 35.1 12.45 23.45 0.0 20.95 9.55 12.6 8.1 0.0 19.0 6.5 30.55 1.2" fill="#ffffff" fill-rule="evenodd" stroke="none"/>
    </g>
    <g id="sprite12" transform="matrix(1.0, 0.0, 0.0, 1.0, 0.0, 0.0)">
      <use ffdec:characterId="189" height="36.6" transform="matrix(0.481, 0.0, 0.0, 0.4781, 0.0, 0.0)" width="38.25" xlink:href="#shape10"/>
    </g>
    <g id="shape10" transform="matrix(1.0, 0.0, 0.0, 1.0, 0.0, 0.0)">
      <path d="M7.6 0.0 L19.35 6.4 31.25 0.35 28.8 13.5 38.25 22.95 25.0 24.7 18.9 36.6 13.2 24.5 0.0 22.4 9.7 13.2 7.6 0.0" fill="#ffffff" fill-rule="evenodd" stroke="none"/>
    </g>
    <g id="sprite13" transform="matrix(1.0, 0.0, 0.0, 1.0, 0.0, 0.0)">
      <use ffdec:characterId="191" height="47.9" transform="matrix(0.63, 0.0, 0.0, 0.6263, 0.0, 0.0)" width="49.05" xlink:href="#shape11"/>
    </g>
    <g id="shape11" transform="matrix(1.0, 0.0, 0.0, 1.0, 0.0, 0.0)">
      <path d="M11.65 0.0 L26.2 9.2 42.0 2.45 37.75 19.1 49.05 32.05 31.9 33.15 23.1 47.9 16.75 31.9 0.0 28.1 13.2 17.1 11.65 0.0" fill="#ffffff" fill-rule="evenodd" stroke="none"/>
    </g>
    <g id="sprite14" transform="matrix(1.0, 0.0, 0.0, 1.0, 0.0, 0.0)">
      <use ffdec:characterId="193" height="31.4" transform="matrix(1.0, 0.0, 0.0, 1.0, 0.0, 0.0)" width="31.65" xlink:href="#shape12"/>
    </g>
    <g id="shape12" transform="matrix(1.0, 0.0, 0.0, 1.0, 0.0, 0.0)">
      <path d="M0.0 9.45 L11.15 9.3 17.35 0.0 20.95 10.55 31.65 13.6 22.75 20.3 23.2 31.4 14.05 25.0 3.6 28.85 6.9 18.2 0.0 9.45" fill="#ffffff" fill-rule="evenodd" stroke="none"/>
    </g>
    <g id="sprite15" transform="matrix(1.0, 0.0, 0.0, 1.0, 0.0, 0.0)">
      <use ffdec:characterId="195" height="24.35" transform="matrix(1.0, 0.0, 0.0, 1.0, 0.0, 0.0)" width="23.2" xlink:href="#shape13"/>
    </g>
    <g id="shape13" transform="matrix(1.0, 0.0, 0.0, 1.0, 0.0, 0.0)">
      <path d="M0.15 4.5 L8.5 6.05 14.5 0.0 15.65 8.45 23.2 12.3 15.55 15.95 14.25 24.35 8.4 18.2 0.0 19.55 4.05 12.05 0.15 4.5" fill="#ffffff" fill-rule="evenodd" stroke="none"/>
    </g>
    <g id="sprite16" transform="matrix(1.0, 0.0, 0.0, 1.0, 0.0, 0.0)">
      <use ffdec:characterId="184" height="20.05" transform="matrix(1.0, 0.0, 0.0, 1.0, 0.0, 0.0)" width="20.7" xlink:href="#shape8"/>
    </g>
    <g id="sprite17" transform="matrix(1.0, 0.0, 0.0, 1.0, 0.0, 0.0)">
      <use ffdec:characterId="198" height="48.2" transform="matrix(0.3766, 0.0, 0.0, 0.3734, 0.0, 0.0)" width="47.0" xlink:href="#shape14"/>
    </g>
    <g id="shape14" transform="matrix(1.0, 0.0, 0.0, 1.0, 0.0, 0.0)">
      <path d="M47.0 22.75 L32.5 31.35 31.35 48.2 18.65 37.05 2.3 41.2 9.0 25.7 0.0 11.4 16.8 12.95 27.6 0.0 31.3 16.5 47.0 22.75" fill="#ffffff" fill-rule="evenodd" stroke="none"/>
    </g>
    <g id="sprite18" transform="matrix(1.0, 0.0, 0.0, 1.0, 0.0, 0.0)">
      <use ffdec:characterId="182" height="25.25" transform="matrix(0.866, 0.0, 0.0, 0.8713, 0.0, 0.0)" width="24.25" xlink:href="#shape7"/>
    </g>
    <g id="sprite19" transform="matrix(1.0, 0.0, 0.0, 1.0, 0.0, 0.0)">
      <use ffdec:characterId="182" height="25.25" transform="matrix(1.0, 0.0, 0.0, 1.0, 0.0, 0.0)" width="24.25" xlink:href="#shape7"/>
    </g>
    <g id="sprite20" transform="matrix(1.0, 0.0, 0.0, 1.0, 0.0, 0.0)">
      <use ffdec:characterId="170" height="37.4" transform="matrix(0.2357, 0.0, 0.0, 0.2366, 0.0, 0.0)" width="36.7" xlink:href="#shape2"/>
    </g>
    <g id="sprite21" transform="matrix(1.0, 0.0, 0.0, 1.0, 0.0, 0.0)">
      <use ffdec:characterId="203" height="40.75" transform="matrix(1.0, 0.0, 0.0, 1.0, 0.0, 0.0)" width="40.6" xlink:href="#shape15"/>
    </g>
    <g id="shape15" transform="matrix(1.0, 0.0, 0.0, 1.0, 0.0, 0.0)">
      <path d="M28.85 0.0 L28.8 14.4 40.6 22.6 26.95 27.0 22.8 40.75 14.4 29.1 0.0 29.4 8.5 17.8 3.75 4.25 17.4 8.75 28.85 0.0" fill="#ffffff" fill-rule="evenodd" stroke="none"/>
    </g>
    <g id="sprite22" transform="matrix(1.0, 0.0, 0.0, 1.0, 0.0, 0.0)">
      <use ffdec:characterId="189" height="36.6" transform="matrix(1.0, 0.0, 0.0, 1.0, 0.0, 0.0)" width="38.25" xlink:href="#shape10"/>
    </g>
    <g id="sprite23" transform="matrix(1.0, 0.0, 0.0, 1.0, 0.0, 0.0)">
      <use ffdec:characterId="182" height="25.25" transform="matrix(0.2701, 0.0, 0.0, 0.2693, 0.0, 0.0)" width="24.25" xlink:href="#shape7"/>
    </g>
    <g id="sprite24" transform="matrix(1.0, 0.0, 0.0, 1.0, 0.0, 0.0)">
      <use ffdec:characterId="207" height="32.8" transform="matrix(1.0, 0.0, 0.0, 1.0, 0.0, 0.0)" width="31.55" xlink:href="#shape16"/>
    </g>
    <g id="shape16" transform="matrix(1.0, 0.0, 0.0, 1.0, 0.0, 0.0)">
      <path d="M31.55 15.95 L21.5 21.4 20.3 32.8 12.0 24.9 0.8 27.3 5.7 16.95 0.0 7.05 11.35 8.55 19.0 0.0 21.1 11.3 31.55 15.95" fill="#ffffff" fill-rule="evenodd" stroke="none"/>
    </g>
    <g id="sprite25" transform="matrix(1.0, 0.0, 0.0, 1.0, 0.0, 0.0)">
      <use ffdec:characterId="191" height="47.9" transform="matrix(0.2283, 0.0, 0.0, 0.2244, 0.0, 0.0)" width="49.05" xlink:href="#shape11"/>
    </g>
    <g id="sprite26" transform="matrix(1.0, 0.0, 0.0, 1.0, 0.0, 0.0)">
      <use ffdec:characterId="210" height="31.5" transform="matrix(1.0, 0.0, 0.0, 1.0, 0.0, 0.0)" width="30.55" xlink:href="#shape17"/>
    </g>
    <g id="shape17" transform="matrix(1.0, 0.0, 0.0, 1.0, 0.0, 0.0)">
      <path d="M20.05 0.0 L21.0 11.0 30.55 16.45 20.4 20.7 18.15 31.5 10.95 23.2 0.0 24.4 5.7 14.95 1.15 4.9 11.9 7.4 20.05 0.0" fill="#ffffff" fill-rule="evenodd" stroke="none"/>
    </g>
    <g id="sprite27" transform="matrix(1.0, 0.0, 0.0, 1.0, 0.0, 0.0)">
      <use ffdec:characterId="210" height="31.5" transform="matrix(1.0, 0.0, 0.0, 1.0, 0.0, 0.0)" width="30.55" xlink:href="#shape17"/>
    </g>
    <g id="sprite28" transform="matrix(1.0, 0.0, 0.0, 1.0, 0.0, 0.0)">
      <use ffdec:characterId="213" height="24.45" transform="matrix(0.3061, 0.0, 0.0, 0.3006, 0.0, 0.0)" width="24.5" xlink:href="#shape18"/>
    </g>
    <g id="shape18" transform="matrix(1.0, 0.0, 0.0, 1.0, 0.0, 0.0)">
      <path d="M22.05 2.35 L19.3 10.55 24.5 17.45 15.85 17.4 10.9 24.45 8.3 16.2 0.0 13.7 7.05 8.65 6.9 0.0 13.85 5.15 22.05 2.35" fill="#ffffff" fill-rule="evenodd" stroke="none"/>
    </g>
    <g id="sprite29" transform="matrix(1.0, 0.0, 0.0, 1.0, 0.0, 0.0)">
      <use ffdec:characterId="172" height="34.8" transform="matrix(0.3631, 0.0, 0.0, 0.3621, 0.0, 0.0)" width="36.35" xlink:href="#shape3"/>
    </g>
    <g id="sprite30" transform="matrix(1.0, 0.0, 0.0, 1.0, 0.0, 0.0)">
      <use ffdec:characterId="216" height="18.4" transform="matrix(0.5794, 0.0, 0.0, 0.5679, 0.0, 0.0)" width="18.9" xlink:href="#shape19"/>
    </g>
    <g id="shape19" transform="matrix(1.0, 0.0, 0.0, 1.0, 0.0, 0.0)">
      <path d="M10.0 0.0 L12.45 6.15 18.9 7.6 13.8 11.8 14.45 18.4 8.85 14.9 2.75 17.5 4.35 11.1 0.0 6.1 6.6 5.65 10.0 0.0" fill="#ffffff" fill-rule="evenodd" stroke="none"/>
    </g>
    <g id="sprite31" transform="matrix(1.0, 0.0, 0.0, 1.0, 0.0, 0.0)">
      <use ffdec:characterId="213" height="24.45" transform="matrix(0.2224, 0.0, 0.0, 0.2249, 0.0, 0.0)" width="24.5" xlink:href="#shape18"/>
    </g>
    <g id="sprite32" transform="matrix(1.0, 0.0, 0.0, 1.0, 0.0, 0.0)">
      <use ffdec:characterId="170" height="37.4" transform="matrix(1.0, 0.0, 0.0, 1.0, 0.0, 0.0)" width="36.7" xlink:href="#shape2"/>
    </g>
    <g id="sprite33" transform="matrix(1.0, 0.0, 0.0, 1.0, 0.0, 0.0)">
      <use ffdec:characterId="175" height="34.9" transform="matrix(1.0, 0.0, 0.0, 1.0, 0.0, 0.0)" width="34.45" xlink:href="#shape4"/>
    </g>
    <g id="sprite34" transform="matrix(1.0, 0.0, 0.0, 1.0, 0.0, 0.0)">
      <use ffdec:characterId="216" height="18.4" transform="matrix(1.0, 0.0, 0.0, 1.0, 0.0, 0.0)" width="18.9" xlink:href="#shape19"/>
    </g>
    <g id="sprite35" transform="matrix(1.0, 0.0, 0.0, 1.0, 0.0, 0.0)">
      <use ffdec:characterId="222" height="44.6" transform="matrix(0.489, 0.0, 0.0, 0.4899, 0.0, 0.0)" width="45.3" xlink:href="#shape20"/>
    </g>
    <g id="shape20" transform="matrix(1.0, 0.0, 0.0, 1.0, 0.0, 0.0)">
      <path d="M0.0 18.9 L15.4 14.9 20.85 0.0 29.4 13.4 45.3 13.95 35.2 26.25 39.55 41.55 24.75 35.7 11.55 44.6 12.55 28.7 0.0 18.9" fill="#ffffff" fill-rule="evenodd" stroke="none"/>
    </g>
    <g id="sprite36" transform="matrix(1.0, 0.0, 0.0, 1.0, 0.0, 0.0)">
      <use ffdec:characterId="213" height="24.45" transform="matrix(0.5041, 0.0, 0.0, 0.5031, 0.0, 0.0)" width="24.5" xlink:href="#shape18"/>
    </g>
    <g id="sprite37" transform="matrix(1.0, 0.0, 0.0, 1.0, 0.0, 0.0)">
      <use ffdec:characterId="191" height="47.9" transform="matrix(1.0, 0.0, 0.0, 1.0, 0.0, 0.0)" width="49.05" xlink:href="#shape11"/>
    </g>
    <g id="sprite38" transform="matrix(1.0, 0.0, 0.0, 1.0, 0.0, 0.0)">
      <use ffdec:characterId="226" height="30.4" transform="matrix(1.0, 0.0, 0.0, 1.0, 0.0, 0.0)" width="30.05" xlink:href="#shape21"/>
    </g>
    <g id="shape21" transform="matrix(1.0, 0.0, 0.0, 1.0, 0.0, 0.0)">
      <path d="M20.85 0.0 L21.1 10.65 30.05 16.55 19.95 20.05 17.15 30.4 10.65 21.85 0.0 22.4 6.1 13.6 2.3 3.6 12.55 6.65 20.85 0.0" fill="#ffffff" fill-rule="evenodd" stroke="none"/>
    </g>
    <g id="sprite39" transform="matrix(1.0, 0.0, 0.0, 1.0, 0.0, 0.0)">
      <use ffdec:characterId="222" height="44.6" transform="matrix(0.3091, 0.0, 0.0, 0.3139, 0.0, 0.0)" width="45.3" xlink:href="#shape20"/>
    </g>
    <g id="sprite40" transform="matrix(1.0, 0.0, 0.0, 1.0, 0.0, 0.0)">
      <use ffdec:characterId="179" height="27.7" transform="matrix(1.0, 0.0, 0.0, 1.0, 0.0, 0.0)" width="27.7" xlink:href="#shape6"/>
    </g>
    <g id="sprite41" transform="matrix(1.0, 0.0, 0.0, 1.0, 0.0, 0.0)">
      <use ffdec:characterId="182" height="25.25" transform="matrix(0.3979, 0.0, 0.0, 0.402, 0.0, 0.0)" width="24.25" xlink:href="#shape7"/>
    </g>
    <g id="sprite42" transform="matrix(1.0, 0.0, 0.0, 1.0, 0.0, 0.0)">
      <use ffdec:characterId="213" height="24.45" transform="matrix(0.2551, 0.0, 0.0, 0.2597, 0.0, 0.0)" width="24.5" xlink:href="#shape18"/>
    </g>
    <g id="sprite43" transform="matrix(1.0, 0.0, 0.0, 1.0, 0.0, 0.0)">
      <use ffdec:characterId="222" height="44.6" transform="matrix(1.0, 0.0, 0.0, 1.0, 0.0, 0.0)" width="45.3" xlink:href="#shape20"/>
    </g>
    <g id="sprite44" transform="matrix(1.0, 0.0, 0.0, 1.0, 0.0, 0.0)">
      <use ffdec:characterId="198" height="48.2" transform="matrix(1.0, 0.0, 0.0, 1.0, 0.0, 0.0)" width="47.0" xlink:href="#shape14"/>
    </g>
    <g id="sprite45" transform="matrix(1.0, 0.0, 0.0, 1.0, 0.0, 0.0)">
      <use ffdec:characterId="213" height="24.45" transform="matrix(1.0, 0.0, 0.0, 1.0, 0.0, 0.0)" width="24.5" xlink:href="#shape18"/>
    </g>
  </defs>
</svg>
