<?xml version="1.0" encoding="UTF-8" standalone="no"?>
<svg xmlns:ffdec="https://www.free-decompiler.com/flash" xmlns:xlink="http://www.w3.org/1999/xlink" ffdec:objectType="frame" height="43.5px" width="153.5px" xmlns="http://www.w3.org/2000/svg">
  <g transform="matrix(1.0, 0.0, 0.0, 1.0, 0.0, 1.5)">
    <use ffdec:characterId="242" height="43.5" transform="matrix(1.0, 0.0, 0.0, 1.0, 0.0, -1.5)" width="153.5" xlink:href="#shape0"/>
  </g>
  <defs>
    <g id="shape0" transform="matrix(1.0, 0.0, 0.0, 1.0, 0.0, 1.5)">
      <path d="M15.5 -1.5 L20.95 -1.5 133.05 -1.5 138.0 -1.5 Q144.4 -1.5 148.95 3.4 153.1 7.8 153.5 13.95 L153.5 15.15 153.5 23.05 153.5 25.35 Q153.5 32.2 148.95 37.1 144.4 42.0 138.0 42.0 L133.05 42.0 20.95 42.0 15.5 42.0 Q9.1 42.0 4.55 37.1 0.0 32.2 0.0 25.35 L0.0 23.05 0.0 15.15 0.05 13.95 Q0.4 7.8 4.55 3.4 9.1 -1.5 15.5 -1.5 M152.0 15.15 L151.95 13.95 Q151.6 8.5 147.9 4.5 143.8 0.1 138.0 0.1 L133.05 0.1 20.95 0.1 15.5 0.1 Q9.75 0.1 5.6 4.5 1.9 8.5 1.55 13.95 L1.5 15.15 1.5 23.05 1.5 25.35 Q1.5 31.6 5.6 36.0 9.75 40.4 15.5 40.4 L20.95 40.4 133.05 40.4 138.0 40.4 Q143.8 40.4 147.9 36.0 152.0 31.6 152.0 25.35 L152.0 23.05 152.0 15.15" fill="#117272" fill-rule="evenodd" stroke="none"/>
      <path d="M152.0 15.15 L152.0 23.05 152.0 25.35 Q152.0 31.6 147.9 36.0 143.8 40.4 138.0 40.4 L133.05 40.4 20.95 40.4 15.5 40.4 Q9.75 40.4 5.6 36.0 1.5 31.6 1.5 25.35 L1.5 23.05 1.5 15.15 1.55 13.95 Q1.9 8.5 5.6 4.5 9.75 0.1 15.5 0.1 L20.95 0.1 133.05 0.1 138.0 0.1 Q143.8 0.1 147.9 4.5 151.6 8.5 151.95 13.95 L152.0 15.15" fill="url(#gradient0)" fill-rule="evenodd" stroke="none"/>
      <path d="M147.9 4.5 Q151.6 8.5 151.95 13.95 L152.0 15.15 152.0 23.05 152.0 25.35 Q152.0 31.6 147.9 36.0 143.8 40.4 138.0 40.4 L133.05 40.4 20.95 40.4 15.5 40.4 Q9.75 40.4 5.6 36.0 1.5 31.6 1.5 25.35 L1.5 23.05 1.5 15.15 1.55 13.95 Q1.9 8.5 5.6 4.5 9.75 0.1 15.5 0.1 L20.95 0.1 133.05 0.1 138.0 0.1 Q143.8 0.1 147.9 4.5 M150.5 15.15 L150.45 13.95 Q150.1 9.15 146.85 5.65 143.2 1.7 138.0 1.7 L133.05 1.7 20.95 1.7 15.5 1.7 Q10.35 1.7 6.65 5.65 3.4 9.15 3.05 13.95 L3.0 15.15 3.0 23.05 3.0 25.35 Q3.0 30.95 6.65 34.85 10.35 38.75 15.5 38.75 L20.95 38.75 133.05 38.75 138.0 38.75 Q143.2 38.75 146.85 34.85 150.5 30.95 150.5 25.35 L150.5 23.05 150.5 15.15" fill="url(#gradient1)" fill-rule="evenodd" stroke="none"/>
    </g>
    <linearGradient gradientTransform="matrix(-1.0E-4, 0.0302, -0.0246, -1.0E-4, 77.75, 22.25)" gradientUnits="userSpaceOnUse" id="gradient0" spreadMethod="pad" x1="-819.2" x2="819.2">
      <stop offset="0.0" stop-color="#bdf2f2"/>
      <stop offset="0.4117647058823529" stop-color="#60f2f2"/>
      <stop offset="0.9725490196078431" stop-color="#1ab2b2"/>
    </linearGradient>
    <linearGradient gradientTransform="matrix(0.0, 0.0246, 0.0229, 0.0, 76.75, 19.95)" gradientUnits="userSpaceOnUse" id="gradient1" spreadMethod="pad" x1="-819.2" x2="819.2">
      <stop offset="0.0" stop-color="#ffffff" stop-opacity="0.8"/>
      <stop offset="0.1450980392156863" stop-color="#ffffff" stop-opacity="0.8"/>
      <stop offset="0.2901960784313726" stop-color="#ffffff" stop-opacity="0.02745098"/>
      <stop offset="0.5215686274509804" stop-color="#ffffff" stop-opacity="0.0"/>
      <stop offset="0.7686274509803922" stop-color="#ffffff" stop-opacity="0.0"/>
      <stop offset="1.0" stop-color="#ffffff" stop-opacity="0.2"/>
    </linearGradient>
  </defs>
</svg>
