<?xml version="1.0" encoding="UTF-8" standalone="no"?>
<svg xmlns:ffdec="https://www.free-decompiler.com/flash" xmlns:xlink="http://www.w3.org/1999/xlink" ffdec:objectType="frame" height="43.5px" width="153.5px" xmlns="http://www.w3.org/2000/svg">
  <g transform="matrix(1.0, 0.0, 0.0, 1.0, 0.0, 0.0)">
    <use ffdec:characterId="291" height="43.5" transform="matrix(1.0, 0.0, 0.0, 1.0, 0.0, 0.0)" width="153.5" xlink:href="#shape0"/>
  </g>
  <defs>
    <g id="shape0" transform="matrix(1.0, 0.0, 0.0, 1.0, 0.0, 0.0)">
      <path d="M152.0 16.65 L151.8 13.95 Q151.1 9.45 147.9 6.0 143.8 1.6 138.0 1.6 L133.05 1.6 20.95 1.6 15.5 1.6 Q9.75 1.6 5.6 6.0 2.4 9.45 1.7 13.95 L1.5 16.65 1.5 23.05 1.5 26.85 Q1.5 33.1 5.6 37.5 9.75 41.9 15.5 41.9 L20.95 41.9 133.05 41.9 138.0 41.9 Q143.8 41.9 147.9 37.5 152.0 33.1 152.0 26.85 L152.0 23.05 152.0 16.65 M15.5 0.0 L20.95 0.0 133.05 0.0 138.0 0.0 Q144.4 0.0 148.95 4.9 152.6 8.75 153.35 13.95 L153.5 16.65 153.5 23.05 153.5 26.85 Q153.5 33.7 148.95 38.6 144.4 43.5 138.0 43.5 L133.05 43.5 20.95 43.5 15.5 43.5 Q9.1 43.5 4.55 38.6 0.0 33.7 0.0 26.85 L0.0 23.05 0.0 16.65 0.2 13.95 Q0.9 8.75 4.55 4.9 9.1 0.0 15.5 0.0" fill="#8e0e63" fill-rule="evenodd" stroke="none"/>
      <path d="M152.0 16.65 L152.0 23.05 152.0 26.85 Q152.0 33.1 147.9 37.5 143.8 41.9 138.0 41.9 L133.05 41.9 20.95 41.9 15.5 41.9 Q9.75 41.9 5.6 37.5 1.5 33.1 1.5 26.85 L1.5 23.05 1.5 16.65 1.7 13.95 Q2.4 9.45 5.6 6.0 9.75 1.6 15.5 1.6 L20.95 1.6 133.05 1.6 138.0 1.6 Q143.8 1.6 147.9 6.0 151.1 9.45 151.8 13.95 L152.0 16.65" fill="url(#gradient0)" fill-rule="evenodd" stroke="none"/>
      <path d="M150.5 16.65 L150.3 14.0 Q149.6 10.15 146.85 7.15 143.2 3.2 138.0 3.2 L133.05 3.2 20.95 3.2 15.5 3.2 Q10.35 3.2 6.65 7.15 3.9 10.15 3.25 14.0 3.0 15.25 3.0 16.65 L3.0 23.05 3.0 26.85 Q3.0 32.45 6.65 36.35 10.35 40.25 15.5 40.25 L20.95 40.25 133.05 40.25 138.0 40.25 Q143.2 40.25 146.85 36.35 150.5 32.45 150.5 26.85 L150.5 23.05 150.5 16.65 M147.9 6.0 Q151.1 9.45 151.8 13.95 L152.0 16.65 152.0 23.05 152.0 26.85 Q152.0 33.1 147.9 37.5 143.8 41.9 138.0 41.9 L133.05 41.9 20.95 41.9 15.5 41.9 Q9.75 41.9 5.6 37.5 1.5 33.1 1.5 26.85 L1.5 23.05 1.5 16.65 1.7 13.95 Q2.4 9.45 5.6 6.0 9.75 1.6 15.5 1.6 L20.95 1.6 133.05 1.6 138.0 1.6 Q143.8 1.6 147.9 6.0" fill="url(#gradient1)" fill-rule="evenodd" stroke="none"/>
    </g>
    <linearGradient gradientTransform="matrix(-1.0E-4, 0.0302, -0.0246, -1.0E-4, 77.75, 23.75)" gradientUnits="userSpaceOnUse" id="gradient0" spreadMethod="pad" x1="-819.2" x2="819.2">
      <stop offset="0.0" stop-color="#ff83b3"/>
      <stop offset="0.0" stop-color="#ff669f"/>
      <stop offset="0.3137254901960784" stop-color="#ff99be"/>
      <stop offset="1.0" stop-color="#ff3389"/>
    </linearGradient>
    <linearGradient gradientTransform="matrix(0.0, 0.0246, 0.0229, 0.0, 76.75, 21.4)" gradientUnits="userSpaceOnUse" id="gradient1" spreadMethod="pad" x1="-819.2" x2="819.2">
      <stop offset="0.0" stop-color="#ffffff" stop-opacity="0.8"/>
      <stop offset="0.1450980392156863" stop-color="#ffffff" stop-opacity="0.8"/>
      <stop offset="0.2901960784313726" stop-color="#ffffff" stop-opacity="0.02745098"/>
      <stop offset="0.5215686274509804" stop-color="#ffffff" stop-opacity="0.0"/>
      <stop offset="0.7686274509803922" stop-color="#ffffff" stop-opacity="0.0"/>
      <stop offset="1.0" stop-color="#ffffff" stop-opacity="0.2"/>
    </linearGradient>
  </defs>
</svg>
