<?xml version="1.0" encoding="UTF-8" standalone="no"?>
<svg xmlns:ffdec="https://www.free-decompiler.com/flash" xmlns:xlink="http://www.w3.org/1999/xlink" ffdec:objectType="frame" height="43.5px" width="153.5px" xmlns="http://www.w3.org/2000/svg">
  <g transform="matrix(1.0, 0.0, 0.0, 1.0, 0.0, 0.0)">
    <use ffdec:characterId="293" height="43.5" transform="matrix(1.0, 0.0, 0.0, 1.0, 0.0, 0.0)" width="153.5" xlink:href="#shape0"/>
  </g>
  <defs>
    <g id="shape0" transform="matrix(1.0, 0.0, 0.0, 1.0, 0.0, 0.0)">
      <path d="M15.5 0.0 L20.95 0.0 133.05 0.0 138.0 0.0 Q144.4 0.0 148.95 4.9 152.6 8.75 153.35 13.95 L153.5 16.65 153.5 26.85 153.4 29.15 Q152.75 34.55 148.95 38.6 144.4 43.5 138.0 43.5 L133.05 43.5 20.95 43.5 15.5 43.5 Q9.1 43.5 4.55 38.6 0.75 34.55 0.15 29.15 L0.0 26.85 0.0 16.65 0.2 13.95 Q0.9 8.75 4.55 4.9 9.1 0.0 15.5 0.0 M152.0 16.65 L151.8 13.95 Q151.1 9.45 147.9 6.0 143.8 1.6 138.0 1.6 L133.05 1.6 20.95 1.6 15.5 1.6 Q9.75 1.6 5.6 6.0 2.4 9.45 1.7 13.95 L1.5 16.65 1.5 26.85 1.65 29.15 Q2.25 33.9 5.6 37.5 9.75 41.9 15.5 41.9 L20.95 41.9 133.05 41.9 138.0 41.9 Q143.8 41.9 147.9 37.5 151.25 33.9 151.85 29.15 L152.0 26.85 152.0 16.65" fill="#ac1479" fill-rule="evenodd" stroke="none"/>
      <path d="M152.0 16.65 L152.0 26.85 151.85 29.15 Q151.25 33.9 147.9 37.5 143.8 41.9 138.0 41.9 L133.05 41.9 20.95 41.9 15.5 41.9 Q9.75 41.9 5.6 37.5 2.25 33.9 1.65 29.15 L1.5 26.85 1.5 16.65 1.7 13.95 Q2.4 9.45 5.6 6.0 9.75 1.6 15.5 1.6 L20.95 1.6 133.05 1.6 138.0 1.6 Q143.8 1.6 147.9 6.0 151.1 9.45 151.8 13.95 L152.0 16.65" fill="url(#gradient0)" fill-rule="evenodd" stroke="none"/>
      <path d="M150.5 16.55 L150.3 14.0 Q149.65 10.05 146.85 7.05 143.2 3.1 138.0 3.1 L133.05 3.1 20.95 3.1 15.5 3.1 Q10.35 3.1 6.65 7.05 3.85 10.05 3.2 14.0 L3.0 16.55 3.0 26.75 3.2 29.1 Q3.8 33.2 6.65 36.25 10.35 40.15 15.5 40.15 L20.95 40.15 133.05 40.15 138.0 40.15 Q143.2 40.15 146.85 36.25 149.7 33.2 150.35 29.1 L150.5 26.75 150.5 16.55 M147.9 5.9 Q151.1 9.4 151.8 13.95 L152.0 16.55 152.0 26.75 151.85 29.15 Q151.2 33.85 147.9 37.4 143.8 41.8 138.0 41.8 L133.05 41.8 20.95 41.8 15.5 41.8 Q9.75 41.8 5.6 37.4 2.3 33.85 1.65 29.15 1.5 27.95 1.5 26.75 L1.5 16.55 1.7 13.95 Q2.4 9.4 5.6 5.9 9.75 1.5 15.5 1.5 L20.95 1.5 133.05 1.5 138.0 1.5 Q143.8 1.5 147.9 5.9" fill="url(#gradient1)" fill-rule="evenodd" stroke="none"/>
    </g>
    <linearGradient gradientTransform="matrix(-2.0E-4, 0.0314, -0.0246, -1.0E-4, 76.75, 21.75)" gradientUnits="userSpaceOnUse" id="gradient0" spreadMethod="pad" x1="-819.2" x2="819.2">
      <stop offset="0.0" stop-color="#ff0065"/>
      <stop offset="1.0" stop-color="#ff9cc4"/>
    </linearGradient>
    <linearGradient gradientTransform="matrix(0.0, 0.0246, 0.0229, 0.0, 76.75, 21.35)" gradientUnits="userSpaceOnUse" id="gradient1" spreadMethod="pad" x1="-819.2" x2="819.2">
      <stop offset="0.0" stop-color="#ffffff" stop-opacity="0.8"/>
      <stop offset="0.1450980392156863" stop-color="#ffffff" stop-opacity="0.8"/>
      <stop offset="0.2901960784313726" stop-color="#ffffff" stop-opacity="0.02745098"/>
      <stop offset="0.5215686274509804" stop-color="#ffffff" stop-opacity="0.0"/>
      <stop offset="0.7686274509803922" stop-color="#ffffff" stop-opacity="0.0"/>
      <stop offset="1.0" stop-color="#ffffff" stop-opacity="0.2"/>
    </linearGradient>
  </defs>
</svg>
