<?xml version="1.0" encoding="UTF-8" standalone="no"?>
<svg xmlns:ffdec="https://www.free-decompiler.com/flash" xmlns:xlink="http://www.w3.org/1999/xlink" ffdec:objectType="frame" height="181.15px" width="198.8px" xmlns="http://www.w3.org/2000/svg">
  <g transform="matrix(1.0, 0.0, 0.0, 1.0, 26.0, 51.25)">
    <use ffdec:characterId="219" height="144.3" transform="matrix(1.0, 0.0, 0.0, 1.0, -26.0, -14.4)" width="197.0" xlink:href="#sprite0"/>
    <use ffdec:characterId="227" height="103.4" transform="matrix(1.0, 0.0, 0.0, 1.0, 67.95, -51.25)" width="104.85" xlink:href="#shape2"/>
  </g>
  <defs>
    <g id="sprite0" transform="matrix(1.0, 0.0, 0.0, 1.0, 0.0, 0.0)">
      <use ffdec:characterId="216" height="144.3" transform="matrix(1.0, 0.0, 0.0, 1.0, 0.0, 0.0)" width="197.0" xlink:href="#shape0"/>
      <use ffdec:characterId="218" height="144.3" transform="matrix(1.0, 0.0, 0.0, 1.0, 0.0, 0.0)" width="197.0" xlink:href="#sprite1"/>
    </g>
    <g id="shape0" transform="matrix(1.0, 0.0, 0.0, 1.0, 0.0, 0.0)">
      <path d="M98.5 144.3 L57.85 107.9 0.0 51.75 57.85 94.3 98.5 144.3" fill="#ffa6d9" fill-rule="evenodd" stroke="none"/>
      <path d="M98.5 144.3 L57.85 94.3 40.0 34.8 82.55 85.7 98.5 144.3" fill="#a6fffb" fill-rule="evenodd" stroke="none"/>
      <path d="M139.1 94.3 L197.0 51.75 139.05 107.9 98.5 144.3 139.1 94.3" fill="#00e6da" fill-rule="evenodd" stroke="none"/>
      <path d="M157.0 34.8 L139.1 94.3 98.5 144.3 113.9 86.2 157.0 34.8" fill="#ff8ccf" fill-rule="evenodd" stroke="none"/>
      <path d="M98.5 144.3 L82.55 85.7 98.5 27.25 113.9 86.2 98.5 144.3" fill="#ffd9ee" fill-rule="evenodd" stroke="none"/>
      <path d="M51.65 4.85 L69.9 12.7 40.0 34.8 20.65 20.55 51.65 4.85" fill="#ffccea" fill-rule="evenodd" stroke="none"/>
      <path d="M145.3 4.85 L176.35 20.55 157.0 34.8 127.05 12.7 145.3 4.85" fill="#fff2fa" fill-rule="evenodd" stroke="none"/>
      <path d="M98.5 0.0 L127.05 12.7 98.5 27.25 69.9 12.7 98.5 0.0" fill="#ffffff" fill-rule="evenodd" stroke="none"/>
      <path d="M98.5 0.0 L69.9 12.7 51.65 4.85 98.5 0.0" fill="#d9fffd" fill-rule="evenodd" stroke="none"/>
      <path d="M98.5 0.0 L145.3 4.85 127.05 12.7 98.5 0.0" fill="#ffa6da" fill-rule="evenodd" stroke="none"/>
      <path d="M0.0 51.75 L20.65 20.55 40.0 34.8 0.0 51.75" fill="#ff73c5" fill-rule="evenodd" stroke="none"/>
      <path d="M40.0 34.8 L57.85 94.3 0.0 51.75 40.0 34.8" fill="#00e6da" fill-rule="evenodd" stroke="none"/>
      <path d="M69.9 12.7 L98.5 27.25 40.0 34.8 69.9 12.7" fill="#00fff3" fill-rule="evenodd" stroke="none"/>
      <path d="M98.5 27.25 L82.55 85.7 40.0 34.8 98.5 27.25" fill="#80fff9" fill-rule="evenodd" stroke="none"/>
      <path d="M196.95 51.75 L157.0 34.8 176.35 20.55 196.95 51.75" fill="#00fff3" fill-rule="evenodd" stroke="none"/>
      <path d="M157.0 34.8 L196.95 51.75 139.1 94.3 157.0 34.8" fill="#ff59ba" fill-rule="evenodd" stroke="none"/>
      <path d="M127.05 12.7 L157.0 34.8 98.5 27.25 127.05 12.7" fill="#a6fffb" fill-rule="evenodd" stroke="none"/>
      <path d="M113.9 86.2 L98.5 27.25 157.0 34.8 113.9 86.2" fill="#ccfffc" fill-rule="evenodd" stroke="none"/>
      <path d="M145.3 4.85 L176.35 20.55 196.95 51.75 139.05 107.9 98.5 144.3 57.85 107.9 0.0 51.75 20.65 20.55 51.65 4.85 98.5 0.0 145.3 4.85" fill="url(#gradient0)" fill-rule="evenodd" stroke="none"/>
    </g>
    <radialGradient cx="0" cy="0" gradientTransform="matrix(0.0508, -0.1087, -0.0971, -0.0454, 63.6, 104.15)" gradientUnits="userSpaceOnUse" id="gradient0" r="819.2" spreadMethod="pad">
      <stop offset="0.18823529411764706" stop-color="#f1ff00" stop-opacity="0.8"/>
      <stop offset="0.2901960784313726" stop-color="#f2ff1a" stop-opacity="0.7176471"/>
      <stop offset="0.5098039215686274" stop-color="#f6ff5b" stop-opacity="0.5137255"/>
      <stop offset="0.8274509803921568" stop-color="#fcffc3" stop-opacity="0.1882353"/>
      <stop offset="1.0" stop-color="#ffffff" stop-opacity="0.0"/>
    </radialGradient>
    <g id="sprite1" transform="matrix(1.0, 0.0, 0.0, 1.0, 0.0, 0.0)">
      <use ffdec:characterId="217" height="144.3" transform="matrix(1.0, 0.0, 0.0, 1.0, 0.0, 0.0)" width="197.0" xlink:href="#shape1"/>
    </g>
    <g id="shape1" transform="matrix(1.0, 0.0, 0.0, 1.0, 0.0, 0.0)">
      <path d="M98.5 144.3 L98.45 144.3 81.7 116.5 98.5 76.05 115.25 116.5 98.5 144.3" fill="#ccf7ff" fill-rule="evenodd" stroke="none"/>
      <path d="M81.7 116.5 L98.5 144.3 57.85 107.9 27.4 65.8 81.7 116.5" fill="#00abcc" fill-rule="evenodd" stroke="none"/>
      <path d="M115.25 116.5 L169.6 65.8 139.05 107.9 98.45 144.3 115.25 116.5" fill="#ff26a5" fill-rule="evenodd" stroke="none"/>
      <path d="M145.85 29.5 L130.65 49.95 98.5 34.8 145.85 29.5" fill="#26ddff" fill-rule="evenodd" stroke="none"/>
      <path d="M34.15 17.1 L20.65 20.55 51.65 4.85 34.15 17.1" fill="#40e0ff" fill-rule="evenodd" stroke="none"/>
      <path d="M34.15 17.1 L51.1 29.5 20.65 39.7 34.15 17.1" fill="#8cedff" fill-rule="evenodd" stroke="none"/>
      <path d="M51.1 29.5 L98.5 34.8 66.3 49.95 51.1 29.5" fill="#ffcce8" fill-rule="evenodd" stroke="none"/>
      <path d="M162.85 17.1 L145.3 4.85 176.35 20.55 162.85 17.1" fill="#ff72c5" fill-rule="evenodd" stroke="none"/>
      <path d="M162.85 17.1 L176.35 39.7 145.85 29.5 162.85 17.1" fill="#0bc2e6" fill-rule="evenodd" stroke="none"/>
      <path d="M10.7 58.65 L27.4 65.8 57.85 107.9 10.7 58.65" fill="#ffe6f5" fill-rule="evenodd" stroke="none"/>
      <path d="M0.0 51.75 L10.7 58.65 57.85 107.9 0.0 51.75" fill="#ff26a5" fill-rule="evenodd" stroke="none"/>
      <path d="M27.4 65.8 L10.7 58.65 20.65 39.7 27.4 65.8" fill="#ff73c5" fill-rule="evenodd" stroke="none"/>
      <path d="M66.3 49.95 L59.15 72.9 27.4 65.8 66.3 49.95" fill="#ffbfe1" fill-rule="evenodd" stroke="none"/>
      <path d="M59.15 72.9 L81.7 116.5 27.4 65.8 59.15 72.9" fill="#99eeff" fill-rule="evenodd" stroke="none"/>
      <path d="M59.15 72.9 L98.5 76.05 81.7 116.5 59.15 72.9" fill="#0bc1e6" fill-rule="evenodd" stroke="none"/>
      <path d="M59.15 72.9 L66.3 49.95 98.5 76.05 59.15 72.9" fill="#ff99d4" fill-rule="evenodd" stroke="none"/>
      <path d="M10.7 58.65 L0.0 51.75 20.65 39.7 10.7 58.65" fill="#ccf7ff" fill-rule="evenodd" stroke="none"/>
      <path d="M186.25 58.65 L139.05 107.9 169.55 65.8 186.25 58.65" fill="#fff2fa" fill-rule="evenodd" stroke="none"/>
      <path d="M197.0 51.75 L139.05 107.9 186.25 58.65 197.0 51.75" fill="#ff66c0" fill-rule="evenodd" stroke="none"/>
      <path d="M169.55 65.8 L176.3 39.7 186.25 58.65 169.55 65.8" fill="#e65cac" fill-rule="evenodd" stroke="none"/>
      <path d="M130.6 49.95 L169.55 65.8 137.75 72.9 130.6 49.95" fill="#ccf7ff" fill-rule="evenodd" stroke="none"/>
      <path d="M115.25 116.5 L137.75 72.9 169.55 65.8 115.25 116.5" fill="#ffa6d5" fill-rule="evenodd" stroke="none"/>
      <path d="M98.45 76.05 L137.75 72.9 115.25 116.5 98.45 76.05" fill="#66e7ff" fill-rule="evenodd" stroke="none"/>
      <path d="M137.75 72.9 L98.45 76.05 130.6 49.95 137.75 72.9" fill="#00b5d9" fill-rule="evenodd" stroke="none"/>
      <path d="M186.25 58.65 L176.3 39.7 196.9 51.75 186.25 58.65" fill="#ffe6f5" fill-rule="evenodd" stroke="none"/>
      <path d="M98.5 76.05 L66.3 49.95 98.5 34.8 130.6 49.95 98.5 76.05" fill="#e6fbff" fill-rule="evenodd" stroke="none"/>
      <path d="M27.4 65.8 L20.65 39.7 51.1 29.5 66.3 49.95 27.4 65.8" fill="#ffe6f3" fill-rule="evenodd" stroke="none"/>
      <path d="M20.65 20.55 L34.15 17.1 20.65 39.7 0.0 51.75 20.65 20.55" fill="#00c0e6" fill-rule="evenodd" stroke="none"/>
      <path d="M176.35 39.7 L169.6 65.8 130.65 49.95 145.85 29.5 176.35 39.7" fill="#ffbfe3" fill-rule="evenodd" stroke="none"/>
      <path d="M176.35 20.55 L196.95 51.75 176.35 39.7 162.85 17.1 176.35 20.55" fill="#ffa6d8" fill-rule="evenodd" stroke="none"/>
      <path d="M98.5 0.0 L145.3 4.85 162.85 17.1 145.85 29.5 98.5 34.8 51.1 29.5 34.15 17.1 51.65 4.85 98.5 0.0" fill="#d9f9ff" fill-rule="evenodd" stroke="none"/>
    </g>
    <g id="shape2" transform="matrix(1.0, 0.0, 0.0, 1.0, -67.95, 51.25)">
      <path d="M125.6 7.05 L119.15 52.15 117.05 6.65 70.25 0.45 117.45 -1.9 123.85 -47.0 125.95 -1.55 172.8 4.7 125.6 7.05" fill="#ffffff" fill-rule="evenodd" stroke="none"/>
      <path d="M87.1 -39.85 Q103.65 -53.2 124.9 -50.95 146.05 -48.7 159.45 -32.1 172.85 -15.55 170.6 5.65 168.35 26.85 151.75 40.2 135.15 53.6 113.95 51.35 92.75 49.05 79.4 32.5 66.0 15.9 68.3 -5.3 70.55 -26.45 87.1 -39.85" fill="url(#gradient1)" fill-rule="evenodd" stroke="none"/>
      <path d="M121.15 6.15 L77.05 43.05 117.8 2.4 80.85 -41.7 121.5 -0.95 165.5 -37.9 124.85 2.8 161.8 46.8 121.15 6.15" fill="#ffffff" fill-rule="evenodd" stroke="none"/>
    </g>
    <radialGradient cx="0" cy="0" gradientTransform="matrix(0.0625, 0.0067, 0.0067, -0.0625, 119.45, 0.15)" gradientUnits="userSpaceOnUse" id="gradient1" r="819.2" spreadMethod="pad">
      <stop offset="0.0" stop-color="#ffffff"/>
      <stop offset="1.0" stop-color="#ffffff" stop-opacity="0.0"/>
    </radialGradient>
  </defs>
</svg>
