<?xml version="1.0" encoding="UTF-8" standalone="no"?>
<svg xmlns:ffdec="https://www.free-decompiler.com/flash" xmlns:xlink="http://www.w3.org/1999/xlink" ffdec:objectType="frame" height="85.35px" width="86.6px" xmlns="http://www.w3.org/2000/svg">
  <g transform="matrix(1.0, 0.0, 0.0, 1.0, -110.05, -31.85)">
    <use ffdec:characterId="267" height="85.35" transform="matrix(1.0, 0.0, 0.0, 1.0, 110.05, 31.85)" width="86.6" xlink:href="#sprite0"/>
  </g>
  <defs>
    <g id="sprite0" transform="matrix(1.0, 0.0, 0.0, 1.0, 0.0, 0.0)">
      <use ffdec:characterId="256" height="315.85" transform="matrix(0.2702, 0.0, 0.0, 0.2702, 0.0, 0.0)" width="320.4" xlink:href="#sprite1"/>
      <use ffdec:characterId="258" height="65.95" transform="matrix(1.0765, 0.0, 0.0, 1.0765, 9.85, 11.05)" width="68.25" xlink:href="#sprite2"/>
      <use ffdec:characterId="260" height="65.95" transform="matrix(1.0765, 0.0, 0.0, 1.0765, 9.9, 11.1)" width="68.25" xlink:href="#sprite3"/>
      <use ffdec:characterId="262" height="19.65" transform="matrix(3.6931, 0.0, 0.0, 3.6931, 3.9, 4.35)" width="20.55" xlink:href="#sprite4"/>
      <use ffdec:characterId="264" height="67.35" transform="matrix(1.0765, 0.0, 0.0, 1.0765, 3.6, 4.2)" width="70.7" xlink:href="#sprite5"/>
      <use ffdec:characterId="266" height="19.3" transform="matrix(1.006, 0.0, 0.0, 1.006, 44.75, 53.3)" width="18.25" xlink:href="#sprite6"/>
      <use ffdec:characterId="266" height="19.3" transform="matrix(-1.006, 0.0, 0.0, 1.006, 39.35, 53.1)" width="18.25" xlink:href="#sprite6"/>
    </g>
    <g id="sprite1" transform="matrix(1.0, 0.0, 0.0, 1.0, 0.0, 0.0)">
      <use ffdec:characterId="255" height="315.85" transform="matrix(1.0, 0.0, 0.0, 1.0, 0.0, 0.0)" width="320.4" xlink:href="#shape0"/>
    </g>
    <g id="shape0" transform="matrix(1.0, 0.0, 0.0, 1.0, 0.0, 0.0)">
      <path d="M170.05 13.95 L207.5 91.6 294.05 105.25 298.0 106.35 Q302.4 108.05 304.5 110.85 309.05 116.9 313.45 124.5 317.6 131.5 319.55 135.95 321.1 139.5 319.8 143.15 319.15 145.0 318.2 146.15 L255.3 210.35 269.25 296.4 Q270.65 304.75 262.65 311.55 254.5 318.1 242.75 312.7 L170.85 276.25 Q131.8 295.55 92.7 314.8 L88.35 315.75 Q83.55 316.3 81.15 314.2 75.95 309.6 69.3 302.3 62.3 294.55 58.25 288.7 55.9 285.25 55.55 279.3 L55.7 274.0 70.05 191.0 2.1 123.5 Q-1.05 118.5 0.55 113.35 2.3 107.55 8.9 105.95 L102.5 91.4 140.55 12.55 Q143.95 5.55 146.95 2.95 150.3 0.0 155.9 0.0 160.9 0.0 164.65 4.95 166.85 7.75 170.05 13.95" fill="#521771" fill-rule="evenodd" stroke="none"/>
    </g>
    <g id="sprite2" transform="matrix(1.0, 0.0, 0.0, 1.0, 0.0, 0.0)">
      <use ffdec:characterId="257" height="65.95" transform="matrix(1.0, 0.0, 0.0, 1.0, 0.0, 0.0)" width="68.25" xlink:href="#shape1"/>
    </g>
    <g id="shape1" transform="matrix(1.0, 0.0, 0.0, 1.0, 0.0, 0.0)">
      <path d="M44.85 19.65 L64.35 18.85 Q65.9 20.05 67.25 22.45 68.8 25.15 68.0 26.3 L52.2 41.75 56.0 63.9 Q55.65 66.95 52.05 65.4 L33.15 55.45 13.45 65.95 Q12.2 66.2 10.2 63.85 L8.35 61.1 7.85 60.05 8.35 58.7 14.45 41.75 20.65 34.25 26.7 26.6 Q26.25 25.85 12.3 24.45 L0.05 22.9 21.65 19.65 31.45 0.05 Q31.95 -0.75 30.65 7.7 29.2 17.1 29.85 18.1 L44.85 19.65" fill="#ab51db" fill-rule="evenodd" stroke="none"/>
    </g>
    <g id="sprite3" transform="matrix(1.0, 0.0, 0.0, 1.0, 0.0, 0.0)">
      <use ffdec:characterId="259" height="65.95" transform="matrix(1.0, 0.0, 0.0, 1.0, 0.0, 0.0)" width="68.25" xlink:href="#shape2"/>
    </g>
    <g id="shape2" transform="matrix(1.0, 0.0, 0.0, 1.0, 0.0, 0.0)">
      <path d="M44.85 19.65 L64.35 18.85 Q65.9 20.05 67.25 22.45 68.8 25.15 68.0 26.3 L52.2 41.75 56.0 63.9 Q55.65 66.95 52.05 65.4 L33.15 55.45 13.45 65.95 Q12.2 66.2 10.2 63.85 8.6 61.85 7.85 60.05 L14.45 41.75 20.65 34.25 26.7 26.6 Q26.25 25.85 12.3 24.45 L0.05 22.9 21.65 19.65 31.45 0.05 Q31.95 -0.75 30.65 7.7 29.2 17.1 29.85 18.1 L44.85 19.65" fill="#000000" fill-opacity="0.3019608" fill-rule="evenodd" stroke="none"/>
    </g>
    <g id="sprite4" transform="matrix(1.0, 0.0, 0.0, 1.0, 0.0, 0.0)">
      <use ffdec:characterId="261" height="19.65" transform="matrix(1.0, 0.0, 0.0, 1.0, 0.0, 0.0)" width="20.55" xlink:href="#shape3"/>
    </g>
    <g id="shape3" transform="matrix(1.0, 0.0, 0.0, 1.0, 0.0, 0.0)">
      <path d="M13.65 6.1 L19.95 7.05 Q20.9 7.3 20.4 8.05 L15.8 12.55 16.9 19.0 Q16.8 19.9 15.75 19.45 L10.25 16.55 4.5 19.6 Q3.7 19.8 3.75 18.75 L4.8 12.55 0.1 7.95 Q-0.3 7.3 0.6 7.05 L6.9 6.1 9.75 0.4 Q10.3 -0.4 10.85 0.4 L13.65 6.1" fill="url(#gradient0)" fill-rule="evenodd" stroke="none"/>
    </g>
    <radialGradient cx="0" cy="0" fx="12.8" fy="0" gradientTransform="matrix(0.0156, 0.0, 0.0, 0.0152, 10.25, 10.9)" gradientUnits="userSpaceOnUse" id="gradient0" r="819.2" spreadMethod="pad">
      <stop offset="0.0" stop-color="#cc94eb"/>
      <stop offset="0.5686274509803921" stop-color="#ab51db"/>
    </radialGradient>
    <g id="sprite5" transform="matrix(1.0, 0.0, 0.0, 1.0, 0.0, 0.0)">
      <use ffdec:characterId="263" height="67.35" transform="matrix(1.0, 0.0, 0.0, 1.0, 0.0, 0.0)" width="70.7" xlink:href="#shape4"/>
    </g>
    <g id="shape4" transform="matrix(1.0, 0.0, 0.0, 1.0, 0.0, 0.0)">
      <path d="M46.45 25.45 Q45.0 32.65 38.25 32.6 33.65 32.6 29.85 34.85 24.75 37.75 22.7 43.65 L20.55 49.45 22.0 41.05 10.35 29.6 Q9.3 28.05 11.55 27.4 L27.2 25.05 34.3 10.9 Q35.65 8.95 37.0 10.9 L44.0 25.05 46.45 25.45" fill="url(#gradient1)" fill-rule="evenodd" stroke="none"/>
      <path d="M46.65 23.6 Q45.5 23.55 44.7 22.3 L37.1 6.85 Q35.55 4.6 33.95 6.85 L25.65 23.4 7.45 26.15 Q4.85 26.85 6.0 28.7 L18.8 41.1 Q20.0 42.3 19.45 43.5 L16.55 59.95 16.55 60.55 56.6 25.1 46.65 23.6 M64.75 29.0 Q66.2 26.85 63.45 26.15 L61.75 25.9 28.45 57.25 35.35 53.55 51.3 61.95 Q54.35 63.25 54.65 60.7 L51.45 42.0 64.75 29.0 M70.1 27.6 L54.3 43.05 58.1 65.2 Q57.75 68.25 54.15 66.7 L35.25 56.75 15.55 67.25 Q12.8 67.9 12.95 64.3 L16.55 43.05 0.45 27.25 Q-0.95 25.05 2.15 24.2 L23.75 20.95 33.55 1.35 Q35.45 -1.35 37.3 1.35 L46.95 20.95 68.55 24.2 Q71.8 25.05 70.1 27.6" fill="url(#gradient2)" fill-rule="evenodd" stroke="none"/>
    </g>
    <linearGradient gradientTransform="matrix(-0.0115, -0.017, 0.0246, -0.0166, 34.3, 10.6)" gradientUnits="userSpaceOnUse" id="gradient1" spreadMethod="pad" x1="-819.2" x2="819.2">
      <stop offset="0.0" stop-color="#ffffff" stop-opacity="0.0"/>
      <stop offset="1.0" stop-color="#ffffff" stop-opacity="0.6"/>
    </linearGradient>
    <linearGradient gradientTransform="matrix(-0.0138, -0.0269, 0.0365, -0.0187, 34.45, 29.9)" gradientUnits="userSpaceOnUse" id="gradient2" spreadMethod="pad" x1="-819.2" x2="819.2">
      <stop offset="0.0" stop-color="#ffffff" stop-opacity="0.0"/>
      <stop offset="1.0" stop-color="#ffffff"/>
    </linearGradient>
    <g id="sprite6" transform="matrix(1.0, 0.0, 0.0, 1.0, 0.0, 0.0)">
      <use ffdec:characterId="265" height="19.3" transform="matrix(1.0, 0.0, 0.0, 1.0, 0.0, 0.0)" width="18.25" xlink:href="#shape5"/>
    </g>
    <g id="shape5" transform="matrix(1.0, 0.0, 0.0, 1.0, 0.0, 0.0)">
      <path d="M13.55 0.0 Q14.6 0.0 15.55 1.4 L18.25 17.3 Q17.9 20.35 14.3 18.8 L0.9 11.75 Q0.0 10.8 0.0 9.85 0.0 7.3 1.95 7.3 L3.7 7.7 7.35 9.65 Q9.45 10.65 10.75 9.7 12.0 8.85 11.75 7.05 L11.05 2.9 11.1 2.25 Q11.1 1.65 11.45 1.05 12.1 0.0 13.55 0.0" fill="url(#gradient3)" fill-rule="evenodd" stroke="none"/>
    </g>
    <linearGradient gradientTransform="matrix(0.0069, 0.0113, -0.0351, 0.0213, 33.3, 6.05)" gradientUnits="userSpaceOnUse" id="gradient3" spreadMethod="pad" x1="-819.2" x2="819.2">
      <stop offset="0.0" stop-color="#ffffff" stop-opacity="0.0"/>
      <stop offset="1.0" stop-color="#ffffff" stop-opacity="0.7019608"/>
    </linearGradient>
  </defs>
</svg>
