<?xml version="1.0" encoding="UTF-8" standalone="no"?>
<svg xmlns:ffdec="https://www.free-decompiler.com/flash" xmlns:xlink="http://www.w3.org/1999/xlink" ffdec:objectType="frame" height="339.35px" width="380.9px" xmlns="http://www.w3.org/2000/svg">
  <g transform="matrix(1.0, 0.0, 0.0, 1.0, 147.8, 72.7)">
    <use ffdec:characterId="253" height="324.15" transform="matrix(1.0, 0.0, 0.0, 1.0, -85.45, -57.5)" width="318.55" xlink:href="#shape0"/>
    <use ffdec:characterId="192" height="17.1" transform="matrix(16.6606, 0.6687, -0.6688, 16.66, -53.05, -34.7)" width="16.9" xlink:href="#sprite0"/>
    <use ffdec:characterId="194" height="17.1" transform="matrix(16.6606, 0.6687, -0.6688, 16.66, -53.05, -34.7)" width="16.9" xlink:href="#sprite1"/>
    <use ffdec:characterId="196" height="16.7" transform="matrix(16.6606, 0.6687, -0.6688, 16.66, -69.55, -52.2)" width="16.7" xlink:href="#sprite2"/>
    <use ffdec:characterId="198" height="15.3" transform="matrix(18.2102, 0.731, -0.731, 18.2094, -69.1, -51.5)" width="15.3" xlink:href="#sprite3"/>
    <use ffdec:characterId="200" height="12.9" transform="matrix(15.669, 0.629, -0.629, 15.6684, -33.1, -12.15)" width="12.9" xlink:href="#sprite4"/>
    <use ffdec:characterId="202" height="11.05" transform="matrix(18.2102, 0.731, -0.731, 18.2094, -26.85, -1.5)" width="11.05" xlink:href="#sprite5"/>
    <use ffdec:characterId="209" height="12.8" transform="matrix(15.7825, 0.6335, -0.5702, 14.2033, -18.4, 3.75)" width="11.45" xlink:href="#sprite6"/>
    <use ffdec:characterId="186" height="9.5" transform="matrix(3.0538, -10.932, 10.9325, 3.0536, 89.35, 228.55)" width="9.5" xlink:href="#sprite10"/>
    <use ffdec:characterId="186" height="9.5" transform="matrix(4.1115, -14.7173, 14.7179, 4.1112, -147.8, 67.1)" width="9.5" xlink:href="#sprite10"/>
  </g>
  <defs>
    <g id="shape0" transform="matrix(1.0, 0.0, 0.0, 1.0, 85.45, 57.5)">
      <path d="M19.15 -51.85 L19.25 -51.85 Q43.15 -58.7 70.05 -57.25 96.75 -55.8 120.1 -47.95 L120.2 -47.95 Q150.7 -35.7 173.1 -8.1 L173.0 -8.25 Q199.0 16.9 210.7 38.1 234.55 78.1 233.0 120.6 230.4 182.5 184.8 223.9 135.55 269.1 70.5 266.5 38.45 265.4 5.7 243.4 L5.7 243.3 Q-33.1 216.5 -58.0 180.25 -62.25 174.2 -64.4 170.3 L-64.25 170.3 Q-78.75 146.85 -83.8 119.85 -85.0 112.1 -85.35 104.7 L-85.35 104.6 -85.45 86.5 Q-85.0 69.25 -80.75 54.0 -74.25 29.35 -59.55 8.45 L-59.55 8.6 Q-50.5 -4.65 -37.25 -16.75 L-37.15 -16.75 Q-12.6 -41.55 19.15 -51.85" fill="#723800" fill-rule="evenodd" stroke="none"/>
    </g>
    <g id="sprite0" transform="matrix(1.0, 0.0, 0.0, 1.0, 0.0, 0.0)">
      <use ffdec:characterId="191" height="17.1" transform="matrix(1.0, 0.0, 0.0, 1.0, 0.0, 0.0)" width="16.9" xlink:href="#shape1"/>
    </g>
    <g id="shape1" transform="matrix(1.0, 0.0, 0.0, 1.0, 0.0, 0.0)">
      <path d="M12.75 0.95 Q14.6 2.6 15.5 4.0 16.9 6.15 16.9 8.55 16.9 12.0 14.45 14.45 11.8 17.1 8.15 17.1 6.35 17.1 4.5 15.9 2.3 14.5 0.8 12.5 0.0 11.45 0.0 10.75 L0.2 8.55 Q0.2 5.1 2.65 2.65 5.1 0.2 8.55 0.2 L10.85 0.0 Q11.65 0.0 12.75 0.95" fill="#f5ba07" fill-rule="evenodd" stroke="none"/>
    </g>
    <g id="sprite1" transform="matrix(1.0, 0.0, 0.0, 1.0, 0.0, 0.0)">
      <use ffdec:characterId="193" height="17.1" transform="matrix(1.0, 0.0, 0.0, 1.0, 0.0, 0.0)" width="16.9" xlink:href="#shape2"/>
    </g>
    <g id="shape2" transform="matrix(1.0, 0.0, 0.0, 1.0, 0.0, 0.0)">
      <path d="M16.9 8.55 Q16.9 12.0 14.45 14.45 11.8 17.1 8.15 17.1 6.35 17.1 4.5 15.9 2.3 14.5 0.8 12.5 0.0 11.45 0.0 10.75 L0.2 8.55 Q0.2 5.1 2.65 2.65 5.1 0.2 8.55 0.2 L10.85 0.0 Q11.65 0.0 12.75 0.95 14.6 2.6 15.5 4.0 16.9 6.15 16.9 8.55" fill="#000000" fill-opacity="0.3019608" fill-rule="evenodd" stroke="none"/>
    </g>
    <g id="sprite2" transform="matrix(1.0, 0.0, 0.0, 1.0, 0.0, 0.0)">
      <use ffdec:characterId="195" height="16.7" transform="matrix(1.0, 0.0, 0.0, 1.0, 0.0, 0.0)" width="16.7" xlink:href="#shape3"/>
    </g>
    <g id="shape3" transform="matrix(1.0, 0.0, 0.0, 1.0, 0.0, 0.0)">
      <path d="M16.7 8.35 Q16.7 11.8 14.25 14.25 11.8 16.7 8.35 16.7 4.9 16.7 2.45 14.25 0.0 11.8 0.0 8.35 0.0 4.9 2.45 2.45 4.9 0.0 8.35 0.0 11.8 0.0 14.25 2.45 16.7 4.9 16.7 8.35" fill="url(#gradient0)" fill-rule="evenodd" stroke="none"/>
    </g>
    <radialGradient cx="0" cy="0" fx="12.8" fy="0" gradientTransform="matrix(0.0103, 0.0, 0.0, 0.0103, 8.35, 8.35)" gradientUnits="userSpaceOnUse" id="gradient0" r="819.2" spreadMethod="pad">
      <stop offset="0.5725490196078431" stop-color="#ffcc00"/>
      <stop offset="1.0" stop-color="#ff9900"/>
    </radialGradient>
    <g id="sprite3" transform="matrix(1.0, 0.0, 0.0, 1.0, 0.0, 0.0)">
      <use ffdec:characterId="197" height="15.3" transform="matrix(1.0, 0.0, 0.0, 1.0, 0.0, 0.0)" width="15.3" xlink:href="#shape4"/>
    </g>
    <g id="shape4" transform="matrix(1.0, 0.0, 0.0, 1.0, 0.0, 0.0)">
      <path d="M12.05 12.3 Q14.0 10.45 14.05 7.75 14.1 5.05 12.25 3.15 10.45 1.2 7.75 1.1 5.05 1.05 3.1 2.9 1.2 4.75 1.1 7.4 1.0 10.15 2.85 12.1 4.7 14.0 7.4 14.05 10.15 14.15 12.05 12.3 M15.3 7.85 Q15.2 11.05 12.9 13.2 10.65 15.4 7.45 15.3 4.25 15.2 2.05 12.95 -0.1 10.65 0.0 7.45 0.1 4.3 2.35 2.1 4.65 -0.05 7.85 0.0 11.0 0.1 13.15 2.4 15.35 4.65 15.3 7.85" fill="url(#gradient1)" fill-rule="evenodd" stroke="none"/>
    </g>
    <linearGradient gradientTransform="matrix(-0.0041, -0.0067, 0.008, -0.0049, 6.3, 5.85)" gradientUnits="userSpaceOnUse" id="gradient1" spreadMethod="pad" x1="-819.2" x2="819.2">
      <stop offset="0.0" stop-color="#ffffff" stop-opacity="0.0"/>
      <stop offset="1.0" stop-color="#ffffff"/>
    </linearGradient>
    <g id="sprite4" transform="matrix(1.0, 0.0, 0.0, 1.0, 0.0, 0.0)">
      <use ffdec:characterId="199" height="12.9" transform="matrix(1.0, 0.0, 0.0, 1.0, 0.0, 0.0)" width="12.9" xlink:href="#shape5"/>
    </g>
    <g id="shape5" transform="matrix(1.0, 0.0, 0.0, 1.0, 0.0, 0.0)">
      <path d="M6.45 0.0 Q9.1 0.0 11.0 1.9 12.9 3.75 12.9 6.45 12.9 9.1 11.0 11.0 9.1 12.9 6.45 12.9 3.8 12.9 1.9 11.0 0.0 9.1 0.0 6.45 0.0 3.75 1.9 1.9 3.8 0.0 6.45 0.0" fill="url(#gradient2)" fill-rule="evenodd" stroke="none"/>
    </g>
    <linearGradient gradientTransform="matrix(-0.0047, -0.0077, 0.0067, -0.0041, 2.95, 1.05)" gradientUnits="userSpaceOnUse" id="gradient2" spreadMethod="pad" x1="-819.2" x2="819.2">
      <stop offset="0.0" stop-color="#ffffff" stop-opacity="0.0"/>
      <stop offset="1.0" stop-color="#ffffff"/>
    </linearGradient>
    <g id="sprite5" transform="matrix(1.0, 0.0, 0.0, 1.0, 0.0, 0.0)">
      <use ffdec:characterId="201" height="11.05" transform="matrix(1.0, 0.0, 0.0, 1.0, 0.0, 0.0)" width="11.05" xlink:href="#shape6"/>
    </g>
    <g id="shape6" transform="matrix(1.0, 0.0, 0.0, 1.0, 0.0, 0.0)">
      <path d="M10.0 5.3 Q10.0 3.4 8.7 2.1 7.35 0.75 5.45 0.75 3.6 0.75 2.25 2.1 0.9 3.4 0.9 5.3 0.9 7.2 2.25 8.55 3.6 9.85 5.45 9.85 7.35 9.85 8.7 8.55 10.0 7.2 10.0 5.3 M5.05 0.0 Q7.35 -0.2 9.1 1.25 10.85 2.75 11.05 5.0 11.25 7.35 9.75 9.05 8.3 10.85 6.0 11.05 3.75 11.25 1.95 9.7 0.2 8.3 0.0 5.95 -0.2 3.7 1.3 1.9 2.8 0.2 5.05 0.0" fill="url(#gradient3)" fill-rule="evenodd" stroke="none"/>
    </g>
    <linearGradient gradientTransform="matrix(0.0047, 0.0063, -0.0054, 0.004, 8.9, 9.85)" gradientUnits="userSpaceOnUse" id="gradient3" spreadMethod="pad" x1="-819.2" x2="819.2">
      <stop offset="0.0" stop-color="#ffffff" stop-opacity="0.0"/>
      <stop offset="1.0" stop-color="#ffffff"/>
    </linearGradient>
    <g id="sprite6" transform="matrix(1.0, 0.0, 0.0, 1.0, 0.0, 0.0)">
      <use ffdec:characterId="204" height="74.9" transform="matrix(0.1667, 0.0, 0.0, 0.1667, 0.05, 0.0)" width="65.8" xlink:href="#sprite7"/>
      <use ffdec:characterId="206" height="69.95" transform="matrix(0.1667, 0.0, 0.0, 0.1667, 0.0, 0.0)" width="65.55" xlink:href="#sprite8"/>
      <use ffdec:characterId="208" height="11.95" transform="matrix(1.0, 0.0, 0.0, 1.0, 0.95, 0.85)" width="10.5" xlink:href="#sprite9"/>
    </g>
    <g id="sprite7" transform="matrix(1.0, 0.0, 0.0, 1.0, 0.0, 0.0)">
      <use ffdec:characterId="203" height="74.9" transform="matrix(1.0, 0.0, 0.0, 1.0, 0.0, 0.0)" width="65.8" xlink:href="#shape7"/>
    </g>
    <g id="shape7" transform="matrix(1.0, 0.0, 0.0, 1.0, 0.0, 0.0)">
      <path d="M33.2 34.9 L32.45 35.6 Q30.65 37.6 29.85 40.6 29.05 43.6 29.05 47.45 L29.05 47.55 Q31.35 47.05 32.95 46.0 36.25 43.9 36.25 39.85 36.25 36.6 33.2 34.9 M44.1 6.9 Q45.4 8.3 46.3 9.95 46.85 11.0 46.3 12.55 45.55 14.7 42.6 15.5 L39.2 16.0 Q36.45 15.9 35.0 14.15 31.2 9.35 23.9 9.35 12.15 9.35 12.15 17.8 12.15 24.0 25.2 24.0 L31.0 24.3 32.45 23.75 Q37.55 22.1 45.0 22.1 L51.85 22.65 Q54.85 23.25 57.35 24.6 59.8 25.95 61.85 28.1 L64.35 31.35 Q65.0 32.35 64.75 34.0 64.4 36.25 61.95 37.3 57.9 38.95 54.95 35.4 53.55 33.65 51.6 32.8 49.2 31.8 45.95 31.65 48.05 35.0 48.05 39.75 48.05 43.95 46.2 47.3 44.4 50.6 41.1 52.85 37.85 55.05 33.0 56.3 L30.25 56.85 Q31.05 59.55 32.5 61.3 35.9 65.65 43.05 65.65 47.95 65.65 51.05 64.25 L53.2 62.8 55.0 61.3 Q57.15 59.2 59.6 59.25 L62.4 59.95 Q65.15 60.9 65.65 62.6 66.0 63.7 65.45 64.6 58.95 74.9 43.95 74.9 36.7 74.9 31.8 73.05 26.9 71.2 23.9 67.8 20.85 64.4 19.6 59.5 L19.1 57.35 14.7 56.7 Q11.05 55.95 8.0 54.35 5.0 52.8 2.65 50.45 1.05 48.85 0.25 47.3 -0.35 46.1 0.4 44.65 1.4 42.7 4.85 41.45 7.0 40.75 8.35 40.7 11.1 40.65 11.9 42.75 12.65 43.95 13.35 44.6 L16.05 46.55 18.3 47.4 Q18.4 41.4 19.65 36.9 20.25 34.8 21.2 32.95 10.3 32.75 5.5 29.1 0.45 25.15 0.45 17.35 0.45 8.4 10.3 3.05 L10.3 3.15 Q16.45 0.0 24.65 0.0 L32.2 0.75 Q35.95 1.55 38.9 3.05 41.85 4.6 44.1 6.9" fill="#663300" fill-opacity="0.20784314" fill-rule="evenodd" stroke="none"/>
    </g>
    <g id="sprite8" transform="matrix(1.0, 0.0, 0.0, 1.0, 0.0, 0.0)">
      <use ffdec:characterId="205" height="69.95" transform="matrix(1.0, 0.0, 0.0, 1.0, 0.0, 0.0)" width="65.55" xlink:href="#shape8"/>
    </g>
    <g id="shape8" transform="matrix(1.0, 0.0, 0.0, 1.0, 0.0, 0.0)">
      <path d="M44.1 6.9 L44.15 6.95 Q42.65 5.75 40.9 4.85 37.95 3.35 34.25 2.55 L26.7 1.8 Q18.5 1.8 12.3 4.95 L12.3 4.85 Q2.45 10.2 2.45 19.2 2.45 25.45 5.7 29.2 L5.55 29.05 Q0.45 25.15 0.45 17.35 0.45 8.35 10.3 3.0 L10.3 3.1 Q16.5 0.0 24.7 0.0 L32.25 0.75 Q35.95 1.5 38.9 3.0 41.9 4.55 44.1 6.9" fill="#914800" fill-rule="evenodd" stroke="none"/>
      <path d="M19.7 36.85 L21.2 32.95 22.7 32.95 24.25 32.95 22.85 35.75 21.7 38.7 Q20.4 43.2 20.35 49.2 L18.05 48.35 15.35 46.4 14.7 45.65 16.05 46.5 18.35 47.4 Q18.4 41.4 19.7 36.85" fill="#914800" fill-rule="evenodd" stroke="none"/>
      <path d="M65.55 62.25 L64.4 61.75 63.35 61.4 61.65 61.05 Q59.15 61.0 57.0 63.1 L55.25 64.6 53.1 66.05 Q50.0 67.45 45.1 67.45 38.15 67.45 34.75 63.35 37.95 65.6 43.1 65.6 48.0 65.6 51.1 64.25 L53.25 62.75 55.0 61.25 Q57.15 59.15 59.65 59.25 L61.35 59.55 62.4 59.9 Q64.85 60.75 65.55 62.25" fill="#914800" fill-rule="evenodd" stroke="none"/>
      <path d="M25.25 23.95 L31.0 24.25 32.45 23.7 Q37.6 22.05 45.05 22.05 L51.85 22.65 Q54.9 23.2 57.4 24.55 59.8 25.9 61.8 28.0 L59.4 26.4 Q56.9 25.05 53.85 24.45 L47.05 23.9 Q39.6 23.9 34.5 25.55 L33.0 26.1 27.25 25.8 Q17.2 25.8 14.9 22.1 18.15 23.95 25.25 23.95" fill="#914800" fill-rule="evenodd" stroke="none"/>
      <path d="M19.15 57.35 L20.8 57.4 21.6 61.3 Q22.9 66.25 25.95 69.6 L26.2 69.95 23.95 67.8 Q20.9 64.4 19.6 59.45 L19.15 57.35" fill="#914800" fill-rule="evenodd" stroke="none"/>
      <path d="M4.85 41.45 Q7.0 40.75 8.35 40.7 11.1 40.6 11.95 42.7 10.75 42.35 9.0 42.7 L6.85 43.25 Q3.45 44.5 2.4 46.45 1.65 47.9 2.3 49.1 3.05 50.6 4.4 52.0 L2.65 50.45 Q1.1 48.8 0.3 47.3 -0.35 46.05 0.4 44.6 1.45 42.65 4.85 41.45" fill="#914800" fill-rule="evenodd" stroke="none"/>
      <path d="M35.1 36.4 L33.3 34.95 Q36.1 35.8 37.35 38.0 38.3 39.65 38.3 41.65 38.3 43.6 37.45 45.15 36.65 46.55 35.0 47.8 34.25 48.4 32.4 49.05 L29.45 49.9 29.15 47.55 33.0 46.0 Q36.25 43.9 36.3 39.8 36.35 37.75 35.1 36.4" fill="#914800" fill-rule="evenodd" stroke="none"/>
    </g>
    <g id="sprite9" transform="matrix(1.0, 0.0, 0.0, 1.0, 0.0, 0.0)">
      <use ffdec:characterId="207" height="11.95" transform="matrix(1.0, 0.0, 0.0, 1.0, 0.0, 0.0)" width="10.5" xlink:href="#shape9"/>
    </g>
    <g id="shape9" transform="matrix(1.0, 0.0, 0.0, 1.0, 0.0, 0.0)">
      <path d="M0.85 8.5 L0.25 8.15 0.35 8.2 1.5 8.55 2.2 8.7 2.3 8.95 2.0 8.9 Q1.4 8.8 0.85 8.5 M5.0 5.35 L4.95 5.4 4.5 6.2 4.4 6.85 3.9 7.05 4.0 5.9 Q4.15 5.4 4.45 5.05 L4.55 4.95 5.0 5.35 M0.5 5.9 L1.15 6.15 1.55 6.6 1.75 6.9 1.7 6.9 1.25 6.55 1.05 6.5 0.85 6.4 0.65 6.35 0.5 5.9 M0.0 4.0 L1.1 4.4 2.55 4.6 2.45 4.9 Q1.15 4.8 0.35 4.3 L0.0 4.0 M7.2 4.75 Q7.55 5.3 7.55 6.1 L7.25 7.35 6.4 8.25 5.05 8.85 4.6 8.95 4.95 9.7 5.1 9.85 Q4.7 9.7 4.45 9.35 L4.1 8.6 4.55 8.5 5.9 7.95 6.75 7.0 7.05 5.75 Q7.05 4.95 6.7 4.4 L7.65 4.6 8.1 4.9 7.2 4.75 M6.9 0.6 L7.25 1.1 7.25 1.55 6.65 2.05 5.95 2.1 Q5.4 2.1 5.15 1.8 L4.8 1.45 4.6 1.25 3.5 1.0 Q1.55 1.0 1.55 2.45 L1.75 2.9 Q1.05 2.65 1.05 2.1 1.05 0.7 3.0 0.7 3.95 0.7 4.55 1.15 L5.4 1.5 6.15 1.7 Q6.65 1.6 6.75 1.2 L6.75 0.8 6.4 0.3 6.1 0.0 6.9 0.6 M10.5 9.85 L10.45 10.2 Q9.4 11.95 6.85 11.95 L4.85 11.65 3.85 11.1 4.35 11.3 6.35 11.6 Q8.85 11.6 9.95 9.9 L10.0 9.7 9.95 9.45 9.65 9.25 10.5 9.85 M10.25 4.7 L10.35 5.1 9.85 5.65 Q9.4 5.85 8.9 5.65 L8.35 5.15 8.8 5.3 9.35 5.35 9.85 4.8 9.75 4.35 9.35 3.8 9.05 3.55 9.1 3.55 9.85 4.15 10.25 4.7" fill="#ffffff" fill-rule="evenodd" stroke="none"/>
    </g>
    <g id="sprite10" transform="matrix(1.0, 0.0, 0.0, 1.0, 0.0, 0.0)">
      <use ffdec:characterId="185" height="9.5" transform="matrix(1.0, 0.0, 0.0, 1.0, 0.0, 0.0)" width="9.5" xlink:href="#shape10"/>
    </g>
    <g id="shape10" transform="matrix(1.0, 0.0, 0.0, 1.0, 0.0, 0.0)">
      <path d="M4.25 4.35 L4.75 0.0 5.25 4.35 9.5 4.85 5.25 5.35 4.75 9.5 4.3 5.35 0.0 4.85 4.25 4.35" fill="#ffffff" fill-rule="evenodd" stroke="none"/>
    </g>
  </defs>
</svg>
